<?xml version="1.0" encoding="utf-8" standalone="no"?>
<!DOCTYPE svg PUBLIC "-//W3C//DTD SVG 1.1//EN"
  "http://www.w3.org/Graphics/SVG/1.1/DTD/svg11.dtd">
<svg height="303.945pt" version="1.1" viewBox="0 0 486.54375 303.945" width="486.54375pt" xmlns="http://www.w3.org/2000/svg" xmlns:xlink="http://www.w3.org/1999/xlink">
 <metadata>
  <rdf:RDF xmlns:cc="http://creativecommons.org/ns#" xmlns:dc="http://purl.org/dc/elements/1.1/" xmlns:rdf="http://www.w3.org/1999/02/22-rdf-syntax-ns#">
   <cc:Work>
    <dc:type rdf:resource="http://purl.org/dc/dcmitype/StillImage"/>
    <dc:date>2021-08-10T09:41:30.778229</dc:date>
    <dc:format>image/svg+xml</dc:format>
    <dc:creator>
     <cc:Agent>
      <dc:title>Matplotlib v3.4.2, https://matplotlib.org/</dc:title>
     </cc:Agent>
    </dc:creator>
   </cc:Work>
  </rdf:RDF>
 </metadata>
 <defs>
  <style type="text/css">*{stroke-linecap:butt;stroke-linejoin:round;}</style>
 </defs>
 <g id="figure_1">
  <g id="patch_1">
   <path d="M 0 303.945 
L 486.54375 303.945 
L 486.54375 0 
L 0 0 
z
" style="fill:#ffffff;"/>
  </g>
  <g id="axes_1">
   <g id="patch_2">
    <path d="M 32.94375 262.800937 
L 479.34375 262.800937 
L 479.34375 72.540937 
L 32.94375 72.540937 
z
" style="fill:#ffffff;"/>
   </g>
   <g id="matplotlib.axis_1">
    <g id="xtick_1">
     <g id="line2d_1"/>
     <g id="text_1">
      <!-- 2015-2016 -->
      <g style="fill:#262626;" transform="translate(47.772346 273.547812)scale(0.1 -0.1)">
       <defs>
        <path d="M 322 0 
L 322 397 
Q 481 763 711 1042 
Q 941 1322 1194 1548 
Q 1447 1775 1695 1969 
Q 1944 2163 2144 2356 
Q 2344 2550 2467 2762 
Q 2591 2975 2591 3244 
Q 2591 3431 2534 3573 
Q 2478 3716 2372 3812 
Q 2266 3909 2117 3957 
Q 1969 4006 1788 4006 
Q 1619 4006 1470 3959 
Q 1322 3913 1206 3819 
Q 1091 3725 1017 3586 
Q 944 3447 922 3263 
L 347 3316 
Q 375 3553 478 3762 
Q 581 3972 762 4130 
Q 944 4288 1198 4378 
Q 1453 4469 1788 4469 
Q 2116 4469 2372 4391 
Q 2628 4313 2804 4159 
Q 2981 4006 3075 3781 
Q 3169 3556 3169 3263 
Q 3169 3041 3089 2841 
Q 3009 2641 2876 2459 
Q 2744 2278 2569 2109 
Q 2394 1941 2203 1780 
Q 2013 1619 1819 1461 
Q 1625 1303 1454 1143 
Q 1284 984 1150 820 
Q 1016 656 941 478 
L 3238 478 
L 3238 0 
L 322 0 
z
" id="LiberationSans-32" transform="scale(0.015625)"/>
        <path d="M 3309 2203 
Q 3309 1569 3189 1136 
Q 3069 703 2861 436 
Q 2653 169 2372 53 
Q 2091 -63 1772 -63 
Q 1450 -63 1172 53 
Q 894 169 689 434 
Q 484 700 367 1133 
Q 250 1566 250 2203 
Q 250 2869 367 3305 
Q 484 3741 690 4000 
Q 897 4259 1178 4364 
Q 1459 4469 1791 4469 
Q 2106 4469 2382 4364 
Q 2659 4259 2865 4000 
Q 3072 3741 3190 3305 
Q 3309 2869 3309 2203 
z
M 2738 2203 
Q 2738 2728 2675 3076 
Q 2613 3425 2491 3633 
Q 2369 3841 2192 3927 
Q 2016 4013 1791 4013 
Q 1553 4013 1372 3925 
Q 1191 3838 1067 3630 
Q 944 3422 881 3073 
Q 819 2725 819 2203 
Q 819 1697 883 1350 
Q 947 1003 1070 792 
Q 1194 581 1372 489 
Q 1550 397 1778 397 
Q 2000 397 2178 489 
Q 2356 581 2479 792 
Q 2603 1003 2670 1350 
Q 2738 1697 2738 2203 
z
" id="LiberationSans-30" transform="scale(0.015625)"/>
        <path d="M 488 0 
L 488 478 
L 1609 478 
L 1609 3866 
L 616 3156 
L 616 3688 
L 1656 4403 
L 2175 4403 
L 2175 478 
L 3247 478 
L 3247 0 
L 488 0 
z
" id="LiberationSans-31" transform="scale(0.015625)"/>
        <path d="M 3291 1434 
Q 3291 1103 3191 828 
Q 3091 553 2894 354 
Q 2697 156 2405 46 
Q 2113 -63 1728 -63 
Q 1381 -63 1123 18 
Q 866 100 687 242 
Q 509 384 404 575 
Q 300 766 256 984 
L 825 1050 
Q 859 925 921 808 
Q 984 691 1092 598 
Q 1200 506 1358 451 
Q 1516 397 1741 397 
Q 1959 397 2137 464 
Q 2316 531 2442 662 
Q 2569 794 2637 984 
Q 2706 1175 2706 1422 
Q 2706 1625 2640 1795 
Q 2575 1966 2453 2089 
Q 2331 2213 2154 2281 
Q 1978 2350 1753 2350 
Q 1613 2350 1494 2325 
Q 1375 2300 1273 2256 
Q 1172 2213 1089 2155 
Q 1006 2097 934 2034 
L 384 2034 
L 531 4403 
L 3034 4403 
L 3034 3925 
L 1044 3925 
L 959 2528 
Q 1109 2644 1334 2726 
Q 1559 2809 1869 2809 
Q 2197 2809 2459 2709 
Q 2722 2609 2906 2426 
Q 3091 2244 3191 1991 
Q 3291 1738 3291 1434 
z
" id="LiberationSans-35" transform="scale(0.015625)"/>
        <path d="M 284 1450 
L 284 1950 
L 1847 1950 
L 1847 1450 
L 284 1450 
z
" id="LiberationSans-2d" transform="scale(0.015625)"/>
        <path d="M 3278 1441 
Q 3278 1109 3186 832 
Q 3094 556 2914 357 
Q 2734 159 2468 48 
Q 2203 -63 1856 -63 
Q 1472 -63 1184 84 
Q 897 231 706 507 
Q 516 784 420 1186 
Q 325 1588 325 2100 
Q 325 2688 433 3131 
Q 541 3575 744 3872 
Q 947 4169 1239 4319 
Q 1531 4469 1900 4469 
Q 2125 4469 2322 4422 
Q 2519 4375 2680 4270 
Q 2841 4166 2962 3994 
Q 3084 3822 3156 3572 
L 2619 3475 
Q 2531 3759 2339 3886 
Q 2147 4013 1894 4013 
Q 1663 4013 1475 3903 
Q 1288 3794 1156 3576 
Q 1025 3359 954 3031 
Q 884 2703 884 2266 
Q 1038 2550 1316 2698 
Q 1594 2847 1953 2847 
Q 2253 2847 2497 2750 
Q 2741 2653 2914 2470 
Q 3088 2288 3183 2027 
Q 3278 1766 3278 1441 
z
M 2706 1416 
Q 2706 1644 2650 1828 
Q 2594 2013 2481 2142 
Q 2369 2272 2203 2342 
Q 2038 2413 1819 2413 
Q 1666 2413 1509 2367 
Q 1353 2322 1226 2220 
Q 1100 2119 1020 1953 
Q 941 1788 941 1550 
Q 941 1306 1003 1095 
Q 1066 884 1183 728 
Q 1300 572 1465 481 
Q 1631 391 1838 391 
Q 2041 391 2202 461 
Q 2363 531 2475 664 
Q 2588 797 2647 987 
Q 2706 1178 2706 1416 
z
" id="LiberationSans-36" transform="scale(0.015625)"/>
       </defs>
       <use xlink:href="#LiberationSans-32"/>
       <use x="55.615234" xlink:href="#LiberationSans-30"/>
       <use x="111.230469" xlink:href="#LiberationSans-31"/>
       <use x="166.845703" xlink:href="#LiberationSans-35"/>
       <use x="222.460938" xlink:href="#LiberationSans-2d"/>
       <use x="255.761719" xlink:href="#LiberationSans-32"/>
       <use x="311.376953" xlink:href="#LiberationSans-30"/>
       <use x="366.992188" xlink:href="#LiberationSans-31"/>
       <use x="422.607422" xlink:href="#LiberationSans-36"/>
      </g>
     </g>
    </g>
    <g id="xtick_2">
     <g id="line2d_2"/>
     <g id="text_2">
      <!-- 2016-2017 -->
      <g style="fill:#262626;" transform="translate(121.55747 273.547812)scale(0.1 -0.1)">
       <defs>
        <path d="M 3238 3947 
Q 2906 3441 2628 2973 
Q 2350 2506 2150 2032 
Q 1950 1559 1839 1061 
Q 1728 563 1728 0 
L 1141 0 
Q 1141 528 1266 1036 
Q 1391 1544 1603 2033 
Q 1816 2522 2097 2994 
Q 2378 3466 2694 3925 
L 328 3925 
L 328 4403 
L 3238 4403 
L 3238 3947 
z
" id="LiberationSans-37" transform="scale(0.015625)"/>
       </defs>
       <use xlink:href="#LiberationSans-32"/>
       <use x="55.615234" xlink:href="#LiberationSans-30"/>
       <use x="111.230469" xlink:href="#LiberationSans-31"/>
       <use x="166.845703" xlink:href="#LiberationSans-36"/>
       <use x="222.460938" xlink:href="#LiberationSans-2d"/>
       <use x="255.761719" xlink:href="#LiberationSans-32"/>
       <use x="311.376953" xlink:href="#LiberationSans-30"/>
       <use x="366.992188" xlink:href="#LiberationSans-31"/>
       <use x="422.607422" xlink:href="#LiberationSans-37"/>
      </g>
     </g>
    </g>
    <g id="xtick_3">
     <g id="line2d_3"/>
     <g id="text_3">
      <!-- 2017-2018 -->
      <g style="fill:#262626;" transform="translate(195.342594 273.547812)scale(0.1 -0.1)">
       <defs>
        <path d="M 3281 1228 
Q 3281 947 3192 711 
Q 3103 475 2920 303 
Q 2738 131 2453 34 
Q 2169 -63 1781 -63 
Q 1394 -63 1111 34 
Q 828 131 642 301 
Q 456 472 367 708 
Q 278 944 278 1222 
Q 278 1463 351 1650 
Q 425 1838 548 1973 
Q 672 2109 830 2192 
Q 988 2275 1156 2303 
L 1156 2316 
Q 972 2359 826 2456 
Q 681 2553 582 2689 
Q 484 2825 432 2990 
Q 381 3156 381 3341 
Q 381 3572 470 3776 
Q 559 3981 734 4136 
Q 909 4291 1168 4380 
Q 1428 4469 1769 4469 
Q 2128 4469 2392 4378 
Q 2656 4288 2829 4133 
Q 3003 3978 3087 3772 
Q 3172 3566 3172 3334 
Q 3172 3153 3120 2987 
Q 3069 2822 2970 2686 
Q 2872 2550 2726 2454 
Q 2581 2359 2391 2322 
L 2391 2309 
Q 2581 2278 2743 2195 
Q 2906 2113 3025 1977 
Q 3144 1841 3212 1653 
Q 3281 1466 3281 1228 
z
M 2588 3303 
Q 2588 3469 2545 3606 
Q 2503 3744 2406 3842 
Q 2309 3941 2153 3995 
Q 1997 4050 1769 4050 
Q 1547 4050 1394 3995 
Q 1241 3941 1142 3842 
Q 1044 3744 1000 3606 
Q 956 3469 956 3303 
Q 956 3172 990 3034 
Q 1025 2897 1115 2784 
Q 1206 2672 1365 2600 
Q 1525 2528 1775 2528 
Q 2041 2528 2202 2600 
Q 2363 2672 2448 2784 
Q 2534 2897 2561 3034 
Q 2588 3172 2588 3303 
z
M 2697 1281 
Q 2697 1441 2653 1589 
Q 2609 1738 2503 1852 
Q 2397 1966 2217 2036 
Q 2038 2106 1769 2106 
Q 1522 2106 1348 2036 
Q 1175 1966 1067 1850 
Q 959 1734 909 1582 
Q 859 1431 859 1269 
Q 859 1066 909 898 
Q 959 731 1068 611 
Q 1178 491 1356 425 
Q 1534 359 1788 359 
Q 2044 359 2219 425 
Q 2394 491 2500 611 
Q 2606 731 2651 901 
Q 2697 1072 2697 1281 
z
" id="LiberationSans-38" transform="scale(0.015625)"/>
       </defs>
       <use xlink:href="#LiberationSans-32"/>
       <use x="55.615234" xlink:href="#LiberationSans-30"/>
       <use x="111.230469" xlink:href="#LiberationSans-31"/>
       <use x="166.845703" xlink:href="#LiberationSans-37"/>
       <use x="222.460938" xlink:href="#LiberationSans-2d"/>
       <use x="255.761719" xlink:href="#LiberationSans-32"/>
       <use x="311.376953" xlink:href="#LiberationSans-30"/>
       <use x="366.992188" xlink:href="#LiberationSans-31"/>
       <use x="422.607422" xlink:href="#LiberationSans-38"/>
      </g>
     </g>
    </g>
    <g id="xtick_4">
     <g id="line2d_4"/>
     <g id="text_4">
      <!-- 2018-2019 -->
      <g style="fill:#262626;" transform="translate(269.127718 273.547812)scale(0.1 -0.1)">
       <defs>
        <path d="M 3256 2291 
Q 3256 1703 3145 1261 
Q 3034 819 2828 525 
Q 2622 231 2326 84 
Q 2031 -63 1663 -63 
Q 1409 -63 1206 -11 
Q 1003 41 843 150 
Q 684 259 571 434 
Q 459 609 391 856 
L 928 941 
Q 1016 656 1202 523 
Q 1388 391 1672 391 
Q 1900 391 2089 498 
Q 2278 606 2411 822 
Q 2544 1038 2619 1363 
Q 2694 1688 2700 2125 
Q 2634 1978 2520 1862 
Q 2406 1747 2261 1667 
Q 2116 1588 1947 1545 
Q 1778 1503 1606 1503 
Q 1306 1503 1064 1611 
Q 822 1719 653 1912 
Q 484 2106 392 2379 
Q 300 2653 300 2988 
Q 300 3328 398 3603 
Q 497 3878 684 4070 
Q 872 4263 1145 4366 
Q 1419 4469 1766 4469 
Q 2500 4469 2878 3925 
Q 3256 3381 3256 2291 
z
M 2644 2834 
Q 2644 3078 2586 3293 
Q 2528 3509 2414 3668 
Q 2300 3828 2133 3920 
Q 1966 4013 1747 4013 
Q 1544 4013 1381 3941 
Q 1219 3869 1106 3736 
Q 994 3603 933 3412 
Q 872 3222 872 2988 
Q 872 2766 926 2575 
Q 981 2384 1090 2245 
Q 1200 2106 1362 2026 
Q 1525 1947 1741 1947 
Q 1897 1947 2058 2000 
Q 2219 2053 2348 2162 
Q 2478 2272 2561 2439 
Q 2644 2606 2644 2834 
z
" id="LiberationSans-39" transform="scale(0.015625)"/>
       </defs>
       <use xlink:href="#LiberationSans-32"/>
       <use x="55.615234" xlink:href="#LiberationSans-30"/>
       <use x="111.230469" xlink:href="#LiberationSans-31"/>
       <use x="166.845703" xlink:href="#LiberationSans-38"/>
       <use x="222.460938" xlink:href="#LiberationSans-2d"/>
       <use x="255.761719" xlink:href="#LiberationSans-32"/>
       <use x="311.376953" xlink:href="#LiberationSans-30"/>
       <use x="366.992188" xlink:href="#LiberationSans-31"/>
       <use x="422.607422" xlink:href="#LiberationSans-39"/>
      </g>
     </g>
    </g>
    <g id="xtick_5">
     <g id="line2d_5"/>
     <g id="text_5">
      <!-- 2019-2020 -->
      <g style="fill:#262626;" transform="translate(342.912842 273.547812)scale(0.1 -0.1)">
       <use xlink:href="#LiberationSans-32"/>
       <use x="55.615234" xlink:href="#LiberationSans-30"/>
       <use x="111.230469" xlink:href="#LiberationSans-31"/>
       <use x="166.845703" xlink:href="#LiberationSans-39"/>
       <use x="222.460938" xlink:href="#LiberationSans-2d"/>
       <use x="255.761719" xlink:href="#LiberationSans-32"/>
       <use x="311.376953" xlink:href="#LiberationSans-30"/>
       <use x="366.992188" xlink:href="#LiberationSans-32"/>
       <use x="422.607422" xlink:href="#LiberationSans-30"/>
      </g>
     </g>
    </g>
    <g id="xtick_6">
     <g id="line2d_6"/>
     <g id="text_6">
      <!-- 2020-2021 -->
      <g style="fill:#262626;" transform="translate(416.697966 273.547812)scale(0.1 -0.1)">
       <use xlink:href="#LiberationSans-32"/>
       <use x="55.615234" xlink:href="#LiberationSans-30"/>
       <use x="111.230469" xlink:href="#LiberationSans-32"/>
       <use x="166.845703" xlink:href="#LiberationSans-30"/>
       <use x="222.460938" xlink:href="#LiberationSans-2d"/>
       <use x="255.761719" xlink:href="#LiberationSans-32"/>
       <use x="311.376953" xlink:href="#LiberationSans-30"/>
       <use x="366.992188" xlink:href="#LiberationSans-32"/>
       <use x="422.607422" xlink:href="#LiberationSans-31"/>
      </g>
     </g>
    </g>
   </g>
   <g id="matplotlib.axis_2">
    <g id="ytick_1">
     <g id="line2d_7">
      <path clip-path="url(#pb3dfb16217)" d="M 32.94375 262.800937 
L 479.34375 262.800937 
" style="fill:none;stroke:#cccccc;stroke-linecap:round;stroke-width:0.8;"/>
     </g>
     <g id="line2d_8"/>
     <g id="text_7">
      <!-- 0 -->
      <g style="fill:#262626;" transform="translate(23.882813 266.424375)scale(0.1 -0.1)">
       <use xlink:href="#LiberationSans-30"/>
      </g>
     </g>
    </g>
    <g id="ytick_2">
     <g id="line2d_9">
      <path clip-path="url(#pb3dfb16217)" d="M 32.94375 223.477509 
L 479.34375 223.477509 
" style="fill:none;stroke:#cccccc;stroke-linecap:round;stroke-width:0.8;"/>
     </g>
     <g id="line2d_10"/>
     <g id="text_8">
      <!-- 2000 -->
      <g style="fill:#262626;" transform="translate(7.2 227.100946)scale(0.1 -0.1)">
       <use xlink:href="#LiberationSans-32"/>
       <use x="55.615234" xlink:href="#LiberationSans-30"/>
       <use x="111.230469" xlink:href="#LiberationSans-30"/>
       <use x="166.845703" xlink:href="#LiberationSans-30"/>
      </g>
     </g>
    </g>
    <g id="ytick_3">
     <g id="line2d_11">
      <path clip-path="url(#pb3dfb16217)" d="M 32.94375 184.15408 
L 479.34375 184.15408 
" style="fill:none;stroke:#cccccc;stroke-linecap:round;stroke-width:0.8;"/>
     </g>
     <g id="line2d_12"/>
     <g id="text_9">
      <!-- 4000 -->
      <g style="fill:#262626;" transform="translate(7.2 187.777518)scale(0.1 -0.1)">
       <defs>
        <path d="M 2753 997 
L 2753 0 
L 2222 0 
L 2222 997 
L 147 997 
L 147 1434 
L 2163 4403 
L 2753 4403 
L 2753 1441 
L 3372 1441 
L 3372 997 
L 2753 997 
z
M 2222 3769 
Q 2216 3753 2191 3708 
Q 2166 3663 2134 3606 
Q 2103 3550 2070 3492 
Q 2038 3434 2013 3397 
L 884 1734 
Q 869 1709 839 1668 
Q 809 1628 778 1586 
Q 747 1544 715 1503 
Q 684 1463 666 1441 
L 2222 1441 
L 2222 3769 
z
" id="LiberationSans-34" transform="scale(0.015625)"/>
       </defs>
       <use xlink:href="#LiberationSans-34"/>
       <use x="55.615234" xlink:href="#LiberationSans-30"/>
       <use x="111.230469" xlink:href="#LiberationSans-30"/>
       <use x="166.845703" xlink:href="#LiberationSans-30"/>
      </g>
     </g>
    </g>
    <g id="ytick_4">
     <g id="line2d_13">
      <path clip-path="url(#pb3dfb16217)" d="M 32.94375 144.830651 
L 479.34375 144.830651 
" style="fill:none;stroke:#cccccc;stroke-linecap:round;stroke-width:0.8;"/>
     </g>
     <g id="line2d_14"/>
     <g id="text_10">
      <!-- 6000 -->
      <g style="fill:#262626;" transform="translate(7.2 148.454089)scale(0.1 -0.1)">
       <use xlink:href="#LiberationSans-36"/>
       <use x="55.615234" xlink:href="#LiberationSans-30"/>
       <use x="111.230469" xlink:href="#LiberationSans-30"/>
       <use x="166.845703" xlink:href="#LiberationSans-30"/>
      </g>
     </g>
    </g>
    <g id="ytick_5">
     <g id="line2d_15">
      <path clip-path="url(#pb3dfb16217)" d="M 32.94375 105.507223 
L 479.34375 105.507223 
" style="fill:none;stroke:#cccccc;stroke-linecap:round;stroke-width:0.8;"/>
     </g>
     <g id="line2d_16"/>
     <g id="text_11">
      <!-- 8000 -->
      <g style="fill:#262626;" transform="translate(7.2 109.13066)scale(0.1 -0.1)">
       <use xlink:href="#LiberationSans-38"/>
       <use x="55.615234" xlink:href="#LiberationSans-30"/>
       <use x="111.230469" xlink:href="#LiberationSans-30"/>
       <use x="166.845703" xlink:href="#LiberationSans-30"/>
      </g>
     </g>
    </g>
   </g>
   <g id="patch_3">
    <path clip-path="url(#pb3dfb16217)" d="M 51.390031 262.800937 
L 91.971849 262.800937 
L 91.971849 157.078327 
L 51.390031 157.078327 
z
" style="fill:#808080;"/>
   </g>
   <g id="patch_4">
    <path clip-path="url(#pb3dfb16217)" d="M 125.175155 262.800937 
L 165.756973 262.800937 
L 165.756973 171.581004 
L 125.175155 171.581004 
z
" style="fill:#808080;"/>
   </g>
   <g id="patch_5">
    <path clip-path="url(#pb3dfb16217)" d="M 198.960279 262.800937 
L 239.542097 262.800937 
L 239.542097 172.934516 
L 198.960279 172.934516 
z
" style="fill:#808080;"/>
   </g>
   <g id="patch_6">
    <path clip-path="url(#pb3dfb16217)" d="M 272.745403 262.800937 
L 313.327221 262.800937 
L 313.327221 128.237934 
L 272.745403 128.237934 
z
" style="fill:#808080;"/>
   </g>
   <g id="patch_7">
    <path clip-path="url(#pb3dfb16217)" d="M 346.530527 262.800937 
L 387.112345 262.800937 
L 387.112345 81.600937 
L 346.530527 81.600937 
z
" style="fill:#808080;"/>
   </g>
   <g id="patch_8">
    <path clip-path="url(#pb3dfb16217)" d="M 420.315651 262.800937 
L 460.897469 262.800937 
L 460.897469 91.513194 
L 420.315651 91.513194 
z
" style="fill:#fc475c;"/>
   </g>
   <g id="text_12">
    <!-- 5.377,08 km² -->
    <g style="fill:#262626;" transform="translate(42.501253 155.003327)scale(0.1 -0.1)">
     <defs>
      <path d="M 584 0 
L 584 684 
L 1194 684 
L 1194 0 
L 584 0 
z
" id="LiberationSans-2e" transform="scale(0.015625)"/>
      <path d="M 3278 1216 
Q 3278 913 3179 675 
Q 3081 438 2892 273 
Q 2703 109 2423 23 
Q 2144 -63 1784 -63 
Q 1375 -63 1095 39 
Q 816 141 634 308 
Q 453 475 362 689 
Q 272 903 244 1131 
L 825 1184 
Q 850 1009 917 865 
Q 984 722 1100 619 
Q 1216 516 1384 459 
Q 1553 403 1784 403 
Q 2209 403 2451 612 
Q 2694 822 2694 1234 
Q 2694 1478 2586 1626 
Q 2478 1775 2317 1858 
Q 2156 1941 1967 1969 
Q 1778 1997 1619 1997 
L 1300 1997 
L 1300 2484 
L 1606 2484 
Q 1766 2484 1937 2517 
Q 2109 2550 2251 2636 
Q 2394 2722 2486 2869 
Q 2578 3016 2578 3244 
Q 2578 3597 2370 3801 
Q 2163 4006 1753 4006 
Q 1381 4006 1151 3815 
Q 922 3625 884 3278 
L 319 3322 
Q 353 3613 478 3828 
Q 603 4044 795 4186 
Q 988 4328 1234 4398 
Q 1481 4469 1759 4469 
Q 2128 4469 2393 4376 
Q 2659 4284 2828 4126 
Q 2997 3969 3076 3756 
Q 3156 3544 3156 3303 
Q 3156 3109 3103 2940 
Q 3050 2772 2937 2637 
Q 2825 2503 2651 2406 
Q 2478 2309 2234 2259 
L 2234 2247 
Q 2500 2219 2697 2126 
Q 2894 2034 3022 1896 
Q 3150 1759 3214 1584 
Q 3278 1409 3278 1216 
z
" id="LiberationSans-33" transform="scale(0.015625)"/>
      <path d="M 1203 684 
L 1203 159 
Q 1203 -6 1189 -142 
Q 1175 -278 1144 -395 
Q 1113 -513 1067 -616 
Q 1022 -719 959 -819 
L 575 -819 
Q 716 -616 792 -409 
Q 869 -203 869 0 
L 594 0 
L 594 684 
L 1203 684 
z
" id="LiberationSans-2c" transform="scale(0.015625)"/>
      <path id="LiberationSans-20" transform="scale(0.015625)"/>
      <path d="M 2550 0 
L 1406 1544 
L 994 1203 
L 994 0 
L 431 0 
L 431 4638 
L 994 4638 
L 994 1741 
L 2478 3381 
L 3138 3381 
L 1766 1928 
L 3209 0 
L 2550 0 
z
" id="LiberationSans-6b" transform="scale(0.015625)"/>
      <path d="M 2400 0 
L 2400 2144 
Q 2400 2391 2369 2556 
Q 2338 2722 2264 2823 
Q 2191 2925 2072 2967 
Q 1953 3009 1781 3009 
Q 1603 3009 1459 2939 
Q 1316 2869 1214 2736 
Q 1113 2603 1058 2408 
Q 1003 2213 1003 1959 
L 1003 0 
L 444 0 
L 444 2659 
Q 444 2766 442 2883 
Q 441 3000 437 3104 
Q 434 3209 431 3284 
Q 428 3359 425 3381 
L 956 3381 
Q 959 3366 962 3297 
Q 966 3228 970 3139 
Q 975 3050 978 2958 
Q 981 2866 981 2803 
L 991 2803 
Q 1066 2950 1153 3069 
Q 1241 3188 1358 3270 
Q 1475 3353 1626 3398 
Q 1778 3444 1978 3444 
Q 2363 3444 2586 3291 
Q 2809 3138 2897 2803 
L 2906 2803 
Q 2981 2950 3075 3069 
Q 3169 3188 3294 3270 
Q 3419 3353 3575 3398 
Q 3731 3444 3931 3444 
Q 4188 3444 4373 3375 
Q 4559 3306 4678 3162 
Q 4797 3019 4853 2792 
Q 4909 2566 4909 2253 
L 4909 0 
L 4353 0 
L 4353 2144 
Q 4353 2391 4322 2556 
Q 4291 2722 4217 2823 
Q 4144 2925 4025 2967 
Q 3906 3009 3734 3009 
Q 3556 3009 3412 2942 
Q 3269 2875 3167 2744 
Q 3066 2613 3011 2416 
Q 2956 2219 2956 1959 
L 2956 0 
L 2400 0 
z
" id="LiberationSans-6d" transform="scale(0.015625)"/>
      <path d="M 134 1759 
L 128 2081 
Q 213 2272 350 2422 
Q 488 2572 644 2698 
Q 800 2825 961 2937 
Q 1122 3050 1250 3164 
Q 1378 3278 1459 3403 
Q 1541 3528 1541 3681 
Q 1541 3875 1430 3992 
Q 1319 4109 1088 4109 
Q 875 4109 737 3995 
Q 600 3881 575 3669 
L 159 3694 
Q 178 3853 250 3989 
Q 322 4125 440 4225 
Q 559 4325 726 4383 
Q 894 4441 1106 4441 
Q 1309 4441 1470 4389 
Q 1631 4338 1742 4244 
Q 1853 4150 1911 4015 
Q 1969 3881 1969 3713 
Q 1969 3519 1884 3362 
Q 1800 3206 1670 3072 
Q 1541 2938 1381 2820 
Q 1222 2703 1073 2589 
Q 925 2475 803 2359 
Q 681 2244 625 2113 
L 2009 2113 
L 2009 1759 
L 134 1759 
z
" id="LiberationSans-b2" transform="scale(0.015625)"/>
     </defs>
     <use xlink:href="#LiberationSans-35"/>
     <use x="55.615234" xlink:href="#LiberationSans-2e"/>
     <use x="83.398438" xlink:href="#LiberationSans-33"/>
     <use x="139.013672" xlink:href="#LiberationSans-37"/>
     <use x="194.628906" xlink:href="#LiberationSans-37"/>
     <use x="250.244141" xlink:href="#LiberationSans-2c"/>
     <use x="278.027344" xlink:href="#LiberationSans-30"/>
     <use x="333.642578" xlink:href="#LiberationSans-38"/>
     <use x="389.257812" xlink:href="#LiberationSans-20"/>
     <use x="417.041016" xlink:href="#LiberationSans-6b"/>
     <use x="467.041016" xlink:href="#LiberationSans-6d"/>
     <use x="550.341797" xlink:href="#LiberationSans-b2"/>
    </g>
   </g>
   <g id="text_13">
    <!-- 4.639,47 km² -->
    <g style="fill:#262626;" transform="translate(116.286377 169.506004)scale(0.1 -0.1)">
     <use xlink:href="#LiberationSans-34"/>
     <use x="55.615234" xlink:href="#LiberationSans-2e"/>
     <use x="83.398438" xlink:href="#LiberationSans-36"/>
     <use x="139.013672" xlink:href="#LiberationSans-33"/>
     <use x="194.628906" xlink:href="#LiberationSans-39"/>
     <use x="250.244141" xlink:href="#LiberationSans-2c"/>
     <use x="278.027344" xlink:href="#LiberationSans-34"/>
     <use x="333.642578" xlink:href="#LiberationSans-37"/>
     <use x="389.257812" xlink:href="#LiberationSans-20"/>
     <use x="417.041016" xlink:href="#LiberationSans-6b"/>
     <use x="467.041016" xlink:href="#LiberationSans-6d"/>
     <use x="550.341797" xlink:href="#LiberationSans-b2"/>
    </g>
   </g>
   <g id="text_14">
    <!-- 4.570,63 km² -->
    <g style="fill:#262626;" transform="translate(190.071501 170.859516)scale(0.1 -0.1)">
     <use xlink:href="#LiberationSans-34"/>
     <use x="55.615234" xlink:href="#LiberationSans-2e"/>
     <use x="83.398438" xlink:href="#LiberationSans-35"/>
     <use x="139.013672" xlink:href="#LiberationSans-37"/>
     <use x="194.628906" xlink:href="#LiberationSans-30"/>
     <use x="250.244141" xlink:href="#LiberationSans-2c"/>
     <use x="278.027344" xlink:href="#LiberationSans-36"/>
     <use x="333.642578" xlink:href="#LiberationSans-33"/>
     <use x="389.257812" xlink:href="#LiberationSans-20"/>
     <use x="417.041016" xlink:href="#LiberationSans-6b"/>
     <use x="467.041016" xlink:href="#LiberationSans-6d"/>
     <use x="550.341797" xlink:href="#LiberationSans-b2"/>
    </g>
   </g>
   <g id="text_15">
    <!-- 6.843,91 km² -->
    <g style="fill:#262626;" transform="translate(263.856624 126.162934)scale(0.1 -0.1)">
     <use xlink:href="#LiberationSans-36"/>
     <use x="55.615234" xlink:href="#LiberationSans-2e"/>
     <use x="83.398438" xlink:href="#LiberationSans-38"/>
     <use x="139.013672" xlink:href="#LiberationSans-34"/>
     <use x="194.628906" xlink:href="#LiberationSans-33"/>
     <use x="250.244141" xlink:href="#LiberationSans-2c"/>
     <use x="278.027344" xlink:href="#LiberationSans-39"/>
     <use x="333.642578" xlink:href="#LiberationSans-31"/>
     <use x="389.257812" xlink:href="#LiberationSans-20"/>
     <use x="417.041016" xlink:href="#LiberationSans-6b"/>
     <use x="467.041016" xlink:href="#LiberationSans-6d"/>
     <use x="550.341797" xlink:href="#LiberationSans-b2"/>
    </g>
   </g>
   <g id="text_16">
    <!-- 9.215,88 km² -->
    <g style="fill:#262626;" transform="translate(337.641748 79.525937)scale(0.1 -0.1)">
     <use xlink:href="#LiberationSans-39"/>
     <use x="55.615234" xlink:href="#LiberationSans-2e"/>
     <use x="83.398438" xlink:href="#LiberationSans-32"/>
     <use x="139.013672" xlink:href="#LiberationSans-31"/>
     <use x="194.628906" xlink:href="#LiberationSans-35"/>
     <use x="250.244141" xlink:href="#LiberationSans-2c"/>
     <use x="278.027344" xlink:href="#LiberationSans-38"/>
     <use x="333.642578" xlink:href="#LiberationSans-38"/>
     <use x="389.257812" xlink:href="#LiberationSans-20"/>
     <use x="417.041016" xlink:href="#LiberationSans-6b"/>
     <use x="467.041016" xlink:href="#LiberationSans-6d"/>
     <use x="550.341797" xlink:href="#LiberationSans-b2"/>
    </g>
   </g>
   <g id="text_17">
    <!-- 8.711,74 km² -->
    <g style="fill:#262626;" transform="translate(411.426872 89.438194)scale(0.1 -0.1)">
     <use xlink:href="#LiberationSans-38"/>
     <use x="55.615234" xlink:href="#LiberationSans-2e"/>
     <use x="83.398438" xlink:href="#LiberationSans-37"/>
     <use x="139.013672" xlink:href="#LiberationSans-31"/>
     <use x="194.628906" xlink:href="#LiberationSans-31"/>
     <use x="250.244141" xlink:href="#LiberationSans-2c"/>
     <use x="278.027344" xlink:href="#LiberationSans-37"/>
     <use x="333.642578" xlink:href="#LiberationSans-34"/>
     <use x="389.257812" xlink:href="#LiberationSans-20"/>
     <use x="417.041016" xlink:href="#LiberationSans-6b"/>
     <use x="467.041016" xlink:href="#LiberationSans-6d"/>
     <use x="550.341797" xlink:href="#LiberationSans-b2"/>
    </g>
   </g>
   <g id="text_18">
    <!-- Desmatamento na Amazônia: 2015-2021 -->
    <g style="fill:#262626;" transform="translate(32.94375 18.070312)scale(0.15 -0.15)">
     <defs>
      <path d="M 4353 2234 
Q 4353 1553 4086 1045 
Q 3819 538 3330 269 
Q 2841 0 2209 0 
L 428 0 
L 428 4403 
L 2022 4403 
Q 3134 4403 3743 3842 
Q 4353 3281 4353 2234 
z
M 3425 2234 
Q 3425 2944 3056 3317 
Q 2688 3691 2003 3691 
L 1350 3691 
L 1350 713 
L 2131 713 
Q 2725 713 3075 1122 
Q 3425 1531 3425 2234 
z
" id="LiberationSans-Bold-44" transform="scale(0.015625)"/>
      <path d="M 1831 -63 
Q 1069 -63 659 389 
Q 250 841 250 1706 
Q 250 2544 665 2994 
Q 1081 3444 1844 3444 
Q 2572 3444 2956 2961 
Q 3341 2478 3341 1547 
L 3341 1522 
L 1172 1522 
Q 1172 1028 1355 776 
Q 1538 525 1875 525 
Q 2341 525 2463 928 
L 3291 856 
Q 2931 -63 1831 -63 
z
M 1831 2891 
Q 1522 2891 1355 2675 
Q 1188 2459 1178 2072 
L 2491 2072 
Q 2466 2481 2294 2686 
Q 2122 2891 1831 2891 
z
" id="LiberationSans-Bold-65" transform="scale(0.015625)"/>
      <path d="M 3297 988 
Q 3297 497 2895 217 
Q 2494 -63 1784 -63 
Q 1088 -63 717 157 
Q 347 378 225 844 
L 997 959 
Q 1063 719 1223 619 
Q 1384 519 1784 519 
Q 2153 519 2322 612 
Q 2491 706 2491 906 
Q 2491 1069 2355 1164 
Q 2219 1259 1894 1325 
Q 1150 1472 890 1598 
Q 631 1725 495 1926 
Q 359 2128 359 2422 
Q 359 2906 732 3176 
Q 1106 3447 1791 3447 
Q 2394 3447 2761 3212 
Q 3128 2978 3219 2534 
L 2441 2453 
Q 2403 2659 2256 2761 
Q 2109 2863 1791 2863 
Q 1478 2863 1322 2783 
Q 1166 2703 1166 2516 
Q 1166 2369 1286 2283 
Q 1406 2197 1691 2141 
Q 2088 2059 2395 1973 
Q 2703 1888 2889 1769 
Q 3075 1650 3186 1464 
Q 3297 1278 3297 988 
z
" id="LiberationSans-Bold-73" transform="scale(0.015625)"/>
      <path d="M 2438 0 
L 2438 1897 
Q 2438 2788 1925 2788 
Q 1659 2788 1492 2516 
Q 1325 2244 1325 1813 
L 1325 0 
L 447 0 
L 447 2625 
Q 447 2897 439 3070 
Q 431 3244 422 3381 
L 1259 3381 
Q 1269 3322 1284 3064 
Q 1300 2806 1300 2709 
L 1313 2709 
Q 1475 3097 1717 3272 
Q 1959 3447 2297 3447 
Q 3072 3447 3238 2709 
L 3256 2709 
Q 3428 3103 3668 3275 
Q 3909 3447 4281 3447 
Q 4775 3447 5034 3111 
Q 5294 2775 5294 2147 
L 5294 0 
L 4422 0 
L 4422 1897 
Q 4422 2788 3909 2788 
Q 3653 2788 3489 2539 
Q 3325 2291 3309 1853 
L 3309 0 
L 2438 0 
z
" id="LiberationSans-Bold-6d" transform="scale(0.015625)"/>
      <path d="M 1228 -63 
Q 738 -63 463 204 
Q 188 472 188 956 
Q 188 1481 530 1756 
Q 872 2031 1522 2038 
L 2250 2050 
L 2250 2222 
Q 2250 2553 2134 2714 
Q 2019 2875 1756 2875 
Q 1513 2875 1398 2764 
Q 1284 2653 1256 2397 
L 341 2441 
Q 425 2934 792 3189 
Q 1159 3444 1794 3444 
Q 2434 3444 2781 3128 
Q 3128 2813 3128 2231 
L 3128 1000 
Q 3128 716 3192 608 
Q 3256 500 3406 500 
Q 3506 500 3600 519 
L 3600 44 
Q 3522 25 3459 9 
Q 3397 -6 3334 -15 
Q 3272 -25 3201 -31 
Q 3131 -38 3038 -38 
Q 2706 -38 2548 125 
Q 2391 288 2359 603 
L 2341 603 
Q 1972 -63 1228 -63 
z
M 2250 1566 
L 1800 1559 
Q 1494 1547 1366 1492 
Q 1238 1438 1170 1325 
Q 1103 1213 1103 1025 
Q 1103 784 1214 667 
Q 1325 550 1509 550 
Q 1716 550 1886 662 
Q 2056 775 2153 973 
Q 2250 1172 2250 1394 
L 2250 1566 
z
" id="LiberationSans-Bold-61" transform="scale(0.015625)"/>
      <path d="M 1313 -56 
Q 925 -56 715 155 
Q 506 366 506 794 
L 506 2788 
L 78 2788 
L 78 3381 
L 550 3381 
L 825 4175 
L 1375 4175 
L 1375 3381 
L 2016 3381 
L 2016 2788 
L 1375 2788 
L 1375 1031 
Q 1375 784 1469 667 
Q 1563 550 1759 550 
Q 1863 550 2053 594 
L 2053 50 
Q 1728 -56 1313 -56 
z
" id="LiberationSans-Bold-74" transform="scale(0.015625)"/>
      <path d="M 2638 0 
L 2638 1897 
Q 2638 2788 2034 2788 
Q 1716 2788 1520 2514 
Q 1325 2241 1325 1813 
L 1325 0 
L 447 0 
L 447 2625 
Q 447 2897 439 3070 
Q 431 3244 422 3381 
L 1259 3381 
Q 1269 3322 1284 3064 
Q 1300 2806 1300 2709 
L 1313 2709 
Q 1491 3097 1759 3272 
Q 2028 3447 2400 3447 
Q 2938 3447 3225 3115 
Q 3513 2784 3513 2147 
L 3513 0 
L 2638 0 
z
" id="LiberationSans-Bold-6e" transform="scale(0.015625)"/>
      <path d="M 3659 1694 
Q 3659 872 3203 404 
Q 2747 -63 1941 -63 
Q 1150 -63 700 406 
Q 250 875 250 1694 
Q 250 2509 700 2976 
Q 1150 3444 1959 3444 
Q 2788 3444 3223 2992 
Q 3659 2541 3659 1694 
z
M 2741 1694 
Q 2741 2297 2544 2569 
Q 2347 2841 1972 2841 
Q 1172 2841 1172 1694 
Q 1172 1128 1367 833 
Q 1563 538 1931 538 
Q 2741 538 2741 1694 
z
" id="LiberationSans-Bold-6f" transform="scale(0.015625)"/>
      <path id="LiberationSans-Bold-20" transform="scale(0.015625)"/>
      <path d="M 3541 0 
L 3150 1125 
L 1472 1125 
L 1081 0 
L 159 0 
L 1766 4403 
L 2853 4403 
L 4453 0 
L 3541 0 
z
M 2309 3725 
L 2291 3656 
Q 2259 3544 2215 3400 
Q 2172 3256 1678 1819 
L 2944 1819 
L 2509 3084 
L 2375 3509 
L 2309 3725 
z
" id="LiberationSans-Bold-41" transform="scale(0.015625)"/>
      <path d="M 256 0 
L 256 622 
L 1847 2747 
L 384 2747 
L 384 3381 
L 2816 3381 
L 2816 2753 
L 1234 641 
L 2969 641 
L 2969 0 
L 256 0 
z
" id="LiberationSans-Bold-7a" transform="scale(0.015625)"/>
      <path d="M 3659 1694 
Q 3659 872 3203 404 
Q 2747 -63 1941 -63 
Q 1150 -63 700 406 
Q 250 875 250 1694 
Q 250 2509 700 2976 
Q 1150 3444 1959 3444 
Q 2788 3444 3223 2992 
Q 3659 2541 3659 1694 
z
M 2741 1694 
Q 2741 2297 2544 2569 
Q 2347 2841 1972 2841 
Q 1172 2841 1172 1694 
Q 1172 1128 1367 833 
Q 1563 538 1931 538 
Q 2741 538 2741 1694 
z
M 3103 3784 
L 3103 3697 
L 2606 3697 
L 1972 4297 
L 1959 4297 
L 1300 3697 
L 800 3697 
L 800 3784 
L 1606 4778 
L 2322 4778 
L 3103 3784 
z
" id="LiberationSans-Bold-f4" transform="scale(0.015625)"/>
      <path d="M 447 3991 
L 447 4638 
L 1325 4638 
L 1325 3991 
L 447 3991 
z
M 447 0 
L 447 3381 
L 1325 3381 
L 1325 0 
L 447 0 
z
" id="LiberationSans-Bold-69" transform="scale(0.015625)"/>
      <path d="M 616 2350 
L 616 3231 
L 1516 3231 
L 1516 2350 
L 616 2350 
z
M 616 0 
L 616 878 
L 1516 878 
L 1516 0 
L 616 0 
z
" id="LiberationSans-Bold-3a" transform="scale(0.015625)"/>
      <path d="M 222 0 
L 222 609 
Q 394 988 711 1347 
Q 1028 1706 1509 2097 
Q 1972 2472 2158 2715 
Q 2344 2959 2344 3194 
Q 2344 3769 1766 3769 
Q 1484 3769 1336 3617 
Q 1188 3466 1144 3163 
L 259 3213 
Q 334 3825 717 4147 
Q 1100 4469 1759 4469 
Q 2472 4469 2853 4144 
Q 3234 3819 3234 3231 
Q 3234 2922 3112 2672 
Q 2991 2422 2800 2211 
Q 2609 2000 2376 1815 
Q 2144 1631 1925 1456 
Q 1706 1281 1526 1103 
Q 1347 925 1259 722 
L 3303 722 
L 3303 0 
L 222 0 
z
" id="LiberationSans-Bold-32" transform="scale(0.015625)"/>
      <path d="M 3297 2203 
Q 3297 1088 2914 512 
Q 2531 -63 1766 -63 
Q 253 -63 253 2203 
Q 253 2994 418 3494 
Q 584 3994 915 4231 
Q 1247 4469 1791 4469 
Q 2572 4469 2934 3903 
Q 3297 3338 3297 2203 
z
M 2416 2203 
Q 2416 2813 2356 3150 
Q 2297 3488 2165 3634 
Q 2034 3781 1784 3781 
Q 1519 3781 1383 3632 
Q 1247 3484 1189 3148 
Q 1131 2813 1131 2203 
Q 1131 1600 1192 1261 
Q 1253 922 1386 775 
Q 1519 628 1772 628 
Q 2022 628 2158 783 
Q 2294 938 2355 1278 
Q 2416 1619 2416 2203 
z
" id="LiberationSans-Bold-30" transform="scale(0.015625)"/>
      <path d="M 403 0 
L 403 653 
L 1494 653 
L 1494 3656 
L 438 2997 
L 438 3688 
L 1541 4403 
L 2372 4403 
L 2372 653 
L 3381 653 
L 3381 0 
L 403 0 
z
" id="LiberationSans-Bold-31" transform="scale(0.015625)"/>
      <path d="M 3381 1466 
Q 3381 766 2945 351 
Q 2509 -63 1750 -63 
Q 1088 -63 689 235 
Q 291 534 197 1100 
L 1075 1172 
Q 1144 891 1319 762 
Q 1494 634 1759 634 
Q 2088 634 2283 843 
Q 2478 1053 2478 1447 
Q 2478 1794 2293 2001 
Q 2109 2209 1778 2209 
Q 1413 2209 1181 1925 
L 325 1925 
L 478 4403 
L 3125 4403 
L 3125 3750 
L 1275 3750 
L 1203 2638 
Q 1522 2919 2000 2919 
Q 2628 2919 3004 2528 
Q 3381 2138 3381 1466 
z
" id="LiberationSans-Bold-35" transform="scale(0.015625)"/>
      <path d="M 250 1278 
L 250 2041 
L 1875 2041 
L 1875 1278 
L 250 1278 
z
" id="LiberationSans-Bold-2d" transform="scale(0.015625)"/>
     </defs>
     <use xlink:href="#LiberationSans-Bold-44"/>
     <use x="72.216797" xlink:href="#LiberationSans-Bold-65"/>
     <use x="127.832031" xlink:href="#LiberationSans-Bold-73"/>
     <use x="183.447266" xlink:href="#LiberationSans-Bold-6d"/>
     <use x="272.363281" xlink:href="#LiberationSans-Bold-61"/>
     <use x="327.978516" xlink:href="#LiberationSans-Bold-74"/>
     <use x="361.279297" xlink:href="#LiberationSans-Bold-61"/>
     <use x="416.894531" xlink:href="#LiberationSans-Bold-6d"/>
     <use x="505.810547" xlink:href="#LiberationSans-Bold-65"/>
     <use x="561.425781" xlink:href="#LiberationSans-Bold-6e"/>
     <use x="622.509766" xlink:href="#LiberationSans-Bold-74"/>
     <use x="655.810547" xlink:href="#LiberationSans-Bold-6f"/>
     <use x="716.894531" xlink:href="#LiberationSans-Bold-20"/>
     <use x="744.677734" xlink:href="#LiberationSans-Bold-6e"/>
     <use x="805.761719" xlink:href="#LiberationSans-Bold-61"/>
     <use x="861.376953" xlink:href="#LiberationSans-Bold-20"/>
     <use x="885.410156" xlink:href="#LiberationSans-Bold-41"/>
     <use x="957.626953" xlink:href="#LiberationSans-Bold-6d"/>
     <use x="1046.542969" xlink:href="#LiberationSans-Bold-61"/>
     <use x="1102.158203" xlink:href="#LiberationSans-Bold-7a"/>
     <use x="1152.158203" xlink:href="#LiberationSans-Bold-f4"/>
     <use x="1213.242188" xlink:href="#LiberationSans-Bold-6e"/>
     <use x="1274.326172" xlink:href="#LiberationSans-Bold-69"/>
     <use x="1302.109375" xlink:href="#LiberationSans-Bold-61"/>
     <use x="1357.724609" xlink:href="#LiberationSans-Bold-3a"/>
     <use x="1391.025391" xlink:href="#LiberationSans-Bold-20"/>
     <use x="1418.808594" xlink:href="#LiberationSans-Bold-32"/>
     <use x="1474.423828" xlink:href="#LiberationSans-Bold-30"/>
     <use x="1530.039062" xlink:href="#LiberationSans-Bold-31"/>
     <use x="1585.654297" xlink:href="#LiberationSans-Bold-35"/>
     <use x="1641.269531" xlink:href="#LiberationSans-Bold-2d"/>
     <use x="1674.570312" xlink:href="#LiberationSans-Bold-32"/>
     <use x="1730.185547" xlink:href="#LiberationSans-Bold-30"/>
     <use x="1785.800781" xlink:href="#LiberationSans-Bold-32"/>
     <use x="1841.416016" xlink:href="#LiberationSans-Bold-31"/>
    </g>
    <!--  -->
    <g style="fill:#262626;" transform="translate(32.94375 34.227187)scale(0.15 -0.15)"/>
    <!--  -->
    <g style="fill:#262626;" transform="translate(32.94375 50.384062)scale(0.15 -0.15)"/>
    <!--  -->
    <g style="fill:#262626;" transform="translate(32.94375 66.540937)scale(0.15 -0.15)"/>
   </g>
  </g>
  <g id="text_19">
   <!-- De agosto a julho, em km² -->
   <g transform="translate(32.94375 29.700937)scale(0.11 -0.11)">
    <defs>
     <path d="M 2325 4403 
Q 2788 4403 3172 4279 
Q 3556 4156 3832 3912 
Q 4109 3669 4262 3308 
Q 4416 2947 4416 2472 
Q 4416 2056 4317 1712 
Q 4219 1369 4041 1094 
Q 3863 819 3619 614 
Q 3375 409 3084 271 
Q 2794 134 2467 67 
Q 2141 0 1797 0 
L 197 0 
L 1050 4403 
L 2325 4403 
z
M 884 478 
L 1772 478 
Q 2231 478 2607 615 
Q 2984 753 3251 1011 
Q 3519 1269 3664 1639 
Q 3809 2009 3809 2478 
Q 3809 2853 3695 3125 
Q 3581 3397 3381 3575 
Q 3181 3753 2906 3839 
Q 2631 3925 2313 3925 
L 1556 3925 
L 884 478 
z
" id="LiberationSans-Italic-44" transform="scale(0.015625)"/>
     <path d="M 800 1572 
Q 784 1484 779 1395 
Q 775 1306 772 1219 
Q 772 803 980 581 
Q 1188 359 1606 359 
Q 1781 359 1925 404 
Q 2069 450 2186 526 
Q 2303 603 2392 704 
Q 2481 806 2541 919 
L 2972 722 
Q 2894 581 2781 442 
Q 2669 303 2501 190 
Q 2334 78 2100 7 
Q 1866 -63 1541 -63 
Q 1228 -63 981 26 
Q 734 116 564 286 
Q 394 456 305 703 
Q 216 950 216 1266 
Q 216 1759 348 2162 
Q 481 2566 717 2850 
Q 953 3134 1273 3289 
Q 1594 3444 1969 3444 
Q 2313 3444 2566 3353 
Q 2819 3263 2987 3100 
Q 3156 2938 3239 2711 
Q 3322 2484 3322 2213 
Q 3322 2147 3317 2069 
Q 3313 1991 3303 1906 
Q 3294 1822 3280 1736 
Q 3266 1650 3247 1572 
L 800 1572 
z
M 2750 2003 
Q 2756 2066 2759 2120 
Q 2763 2175 2763 2228 
Q 2763 2434 2706 2586 
Q 2650 2738 2547 2836 
Q 2444 2934 2300 2981 
Q 2156 3028 1981 3028 
Q 1831 3028 1665 2983 
Q 1500 2938 1348 2822 
Q 1197 2706 1072 2507 
Q 947 2309 875 2003 
L 2750 2003 
z
" id="LiberationSans-Italic-65" transform="scale(0.015625)"/>
     <path id="LiberationSans-Italic-20" transform="scale(0.015625)"/>
     <path d="M 3297 19 
Q 3206 -3 3101 -17 
Q 2997 -31 2897 -31 
Q 2606 -31 2473 89 
Q 2341 209 2341 447 
Q 2341 494 2347 548 
Q 2353 603 2356 647 
L 2338 647 
Q 2228 481 2111 350 
Q 1994 219 1851 126 
Q 1709 34 1534 -14 
Q 1359 -63 1128 -63 
Q 884 -63 701 15 
Q 519 94 394 223 
Q 269 353 206 522 
Q 144 691 144 869 
Q 144 1122 217 1306 
Q 291 1491 417 1622 
Q 544 1753 714 1836 
Q 884 1919 1076 1966 
Q 1269 2013 1475 2031 
Q 1681 2050 1878 2053 
L 2603 2063 
L 2625 2175 
Q 2641 2253 2652 2325 
Q 2663 2397 2663 2459 
Q 2663 2744 2497 2880 
Q 2331 3016 2038 3016 
Q 1884 3016 1751 2992 
Q 1619 2969 1514 2908 
Q 1409 2847 1329 2742 
Q 1250 2638 1200 2478 
L 644 2569 
Q 703 2763 806 2923 
Q 909 3084 1078 3200 
Q 1247 3316 1489 3380 
Q 1731 3444 2069 3444 
Q 2347 3444 2562 3375 
Q 2778 3306 2925 3184 
Q 3072 3063 3148 2894 
Q 3225 2725 3225 2522 
Q 3225 2425 3208 2289 
Q 3191 2153 3166 2031 
L 2934 850 
Q 2919 781 2909 709 
Q 2900 638 2900 575 
Q 2900 459 2961 403 
Q 3022 347 3153 347 
Q 3200 347 3248 353 
Q 3297 359 3341 369 
L 3297 19 
z
M 2528 1675 
L 1906 1663 
Q 1781 1659 1647 1650 
Q 1513 1641 1383 1611 
Q 1253 1581 1136 1531 
Q 1019 1481 931 1395 
Q 844 1309 792 1187 
Q 741 1066 741 894 
Q 741 794 773 698 
Q 806 603 875 529 
Q 944 456 1045 411 
Q 1147 366 1284 366 
Q 1556 366 1759 459 
Q 1963 553 2106 690 
Q 2250 828 2333 989 
Q 2416 1150 2444 1284 
L 2528 1675 
z
" id="LiberationSans-Italic-61" transform="scale(0.015625)"/>
     <path d="M 1241 -1328 
Q 950 -1328 734 -1270 
Q 519 -1213 370 -1109 
Q 222 -1006 136 -861 
Q 50 -716 13 -541 
L 522 -409 
Q 575 -647 758 -773 
Q 941 -900 1253 -900 
Q 1478 -900 1650 -842 
Q 1822 -784 1945 -665 
Q 2069 -547 2151 -361 
Q 2234 -175 2284 84 
Q 2300 166 2319 259 
Q 2338 353 2353 434 
Q 2372 531 2391 628 
L 2384 628 
Q 2297 503 2198 384 
Q 2100 266 1972 175 
Q 1844 84 1675 29 
Q 1506 -25 1281 -25 
Q 1034 -25 837 61 
Q 641 147 503 298 
Q 366 450 292 661 
Q 219 872 219 1122 
Q 219 1275 236 1445 
Q 253 1616 291 1813 
Q 447 2628 820 3034 
Q 1194 3441 1838 3441 
Q 2016 3441 2175 3398 
Q 2334 3356 2461 3273 
Q 2588 3191 2680 3072 
Q 2772 2953 2813 2803 
L 2819 2803 
Q 2834 2881 2857 2978 
Q 2881 3075 2903 3161 
Q 2925 3247 2944 3309 
Q 2963 3372 2969 3381 
L 3503 3381 
Q 3497 3353 3481 3286 
Q 3466 3219 3444 3125 
Q 3422 3031 3398 2917 
Q 3375 2803 3350 2681 
L 2847 97 
Q 2781 -238 2665 -502 
Q 2550 -766 2359 -950 
Q 2169 -1134 1895 -1231 
Q 1622 -1328 1241 -1328 
z
M 809 1166 
Q 809 788 973 589 
Q 1138 391 1456 391 
Q 1625 391 1798 462 
Q 1972 534 2126 690 
Q 2281 847 2404 1094 
Q 2528 1341 2597 1691 
Q 2622 1822 2634 1961 
Q 2647 2100 2647 2200 
Q 2647 2409 2590 2564 
Q 2534 2719 2432 2822 
Q 2331 2925 2193 2975 
Q 2056 3025 1897 3025 
Q 1703 3025 1545 2967 
Q 1388 2909 1263 2770 
Q 1138 2631 1044 2398 
Q 950 2166 881 1813 
Q 847 1628 828 1459 
Q 809 1291 809 1166 
z
" id="LiberationSans-Italic-67" transform="scale(0.015625)"/>
     <path d="M 3356 2134 
Q 3356 1972 3337 1808 
Q 3319 1644 3275 1459 
Q 3181 1047 3014 756 
Q 2847 466 2622 284 
Q 2397 103 2122 20 
Q 1847 -63 1534 -63 
Q 1234 -63 990 29 
Q 747 122 573 298 
Q 400 475 304 729 
Q 209 984 209 1309 
Q 213 1456 227 1612 
Q 241 1769 278 1938 
Q 369 2331 528 2614 
Q 688 2897 906 3081 
Q 1125 3266 1401 3353 
Q 1678 3441 2006 3441 
Q 2338 3441 2589 3353 
Q 2841 3266 3011 3097 
Q 3181 2928 3268 2686 
Q 3356 2444 3356 2134 
z
M 2775 2134 
Q 2775 2375 2722 2544 
Q 2669 2713 2567 2820 
Q 2466 2928 2322 2978 
Q 2178 3028 2000 3028 
Q 1834 3028 1667 2989 
Q 1500 2950 1348 2831 
Q 1197 2713 1072 2494 
Q 947 2275 863 1913 
Q 822 1741 805 1586 
Q 788 1431 788 1300 
Q 788 1044 847 862 
Q 906 681 1011 568 
Q 1116 456 1258 404 
Q 1400 353 1569 353 
Q 1738 353 1902 390 
Q 2066 428 2212 548 
Q 2359 669 2482 891 
Q 2606 1113 2691 1478 
Q 2734 1666 2751 1822 
Q 2769 1978 2775 2134 
z
" id="LiberationSans-Italic-6f" transform="scale(0.015625)"/>
     <path d="M 2834 991 
Q 2834 725 2728 526 
Q 2622 328 2426 197 
Q 2231 66 1953 1 
Q 1675 -63 1328 -63 
Q 1038 -63 819 -12 
Q 600 38 442 133 
Q 284 228 179 370 
Q 75 513 16 697 
L 475 872 
Q 522 747 595 648 
Q 669 550 776 483 
Q 884 416 1032 381 
Q 1181 347 1378 347 
Q 1578 347 1745 380 
Q 1913 413 2033 484 
Q 2153 556 2220 668 
Q 2288 781 2288 941 
Q 2288 1066 2228 1155 
Q 2169 1244 2061 1311 
Q 1953 1378 1798 1436 
Q 1644 1494 1453 1553 
Q 1250 1619 1067 1697 
Q 884 1775 745 1884 
Q 606 1994 523 2142 
Q 441 2291 441 2491 
Q 441 2747 552 2926 
Q 663 3106 852 3218 
Q 1041 3331 1292 3382 
Q 1544 3434 1825 3434 
Q 2081 3434 2293 3390 
Q 2506 3347 2665 3251 
Q 2825 3156 2928 3004 
Q 3031 2853 3069 2638 
L 2559 2559 
Q 2491 2806 2300 2915 
Q 2109 3025 1788 3025 
Q 1622 3025 1476 3000 
Q 1331 2975 1222 2919 
Q 1113 2863 1048 2772 
Q 984 2681 984 2553 
Q 984 2425 1043 2339 
Q 1103 2253 1211 2187 
Q 1319 2122 1470 2070 
Q 1622 2019 1809 1959 
Q 1988 1903 2170 1828 
Q 2353 1753 2500 1642 
Q 2647 1531 2740 1373 
Q 2834 1216 2834 991 
z
" id="LiberationSans-Italic-73" transform="scale(0.015625)"/>
     <path d="M 1400 13 
Q 1284 -16 1146 -39 
Q 1009 -63 859 -63 
Q 594 -63 442 96 
Q 291 256 291 519 
Q 291 619 306 733 
Q 322 847 338 925 
L 731 2972 
L 341 2972 
L 422 3381 
L 819 3381 
L 1147 4138 
L 1522 4138 
L 1375 3381 
L 2000 3381 
L 1919 2972 
L 1294 2972 
L 903 956 
Q 891 894 878 803 
Q 866 713 866 659 
Q 866 528 931 456 
Q 997 384 1147 384 
Q 1228 384 1298 395 
Q 1369 406 1459 428 
L 1400 13 
z
" id="LiberationSans-Italic-74" transform="scale(0.015625)"/>
     <path d="M 903 4100 
L 1006 4638 
L 1569 4638 
L 1466 4100 
L 903 4100 
z
M -313 -1328 
Q -419 -1328 -526 -1314 
Q -634 -1300 -716 -1284 
L -644 -859 
Q -603 -866 -525 -875 
Q -447 -884 -384 -884 
Q -200 -884 -106 -753 
Q -13 -622 41 -334 
L 763 3381 
L 1325 3381 
L 584 -419 
Q 547 -613 486 -778 
Q 425 -944 322 -1066 
Q 219 -1188 64 -1258 
Q -91 -1328 -313 -1328 
z
" id="LiberationSans-Italic-6a" transform="scale(0.015625)"/>
     <path d="M 1297 3381 
L 903 1366 
Q 878 1244 862 1117 
Q 847 991 847 897 
Q 847 650 978 512 
Q 1109 375 1406 375 
Q 1606 375 1782 454 
Q 1959 534 2103 679 
Q 2247 825 2348 1029 
Q 2450 1234 2500 1488 
L 2869 3381 
L 3431 3381 
L 2913 722 
Q 2891 616 2870 498 
Q 2850 381 2833 276 
Q 2816 172 2805 97 
Q 2794 22 2791 0 
L 2259 0 
Q 2259 16 2268 84 
Q 2278 153 2292 242 
Q 2306 331 2320 423 
Q 2334 516 2347 578 
L 2338 578 
Q 2231 431 2118 312 
Q 2006 194 1870 111 
Q 1734 28 1570 -15 
Q 1406 -59 1197 -59 
Q 734 -59 501 169 
Q 269 397 269 828 
Q 269 941 289 1081 
Q 309 1222 334 1341 
L 731 3381 
L 1297 3381 
z
" id="LiberationSans-Italic-75" transform="scale(0.015625)"/>
     <path d="M 103 0 
L 1003 4638 
L 1566 4638 
L 663 0 
L 103 0 
z
" id="LiberationSans-Italic-6c" transform="scale(0.015625)"/>
     <path d="M 1197 2803 
Q 1303 2950 1415 3069 
Q 1528 3188 1664 3270 
Q 1800 3353 1964 3397 
Q 2128 3441 2338 3441 
Q 2800 3441 3033 3212 
Q 3266 2984 3266 2553 
Q 3266 2441 3245 2300 
Q 3225 2159 3200 2041 
L 2803 0 
L 2238 0 
L 2631 2016 
Q 2656 2138 2672 2264 
Q 2688 2391 2688 2484 
Q 2688 2731 2556 2868 
Q 2425 3006 2128 3006 
Q 1928 3006 1751 2926 
Q 1575 2847 1431 2701 
Q 1288 2556 1186 2351 
Q 1084 2147 1034 1894 
L 666 0 
L 106 0 
L 1006 4638 
L 1569 4638 
L 1334 3431 
Q 1316 3328 1292 3225 
Q 1269 3122 1247 3036 
Q 1225 2950 1209 2887 
Q 1194 2825 1188 2803 
L 1197 2803 
z
" id="LiberationSans-Italic-68" transform="scale(0.015625)"/>
     <path d="M 934 159 
Q 903 -6 861 -142 
Q 819 -278 766 -395 
Q 713 -513 647 -616 
Q 581 -719 500 -819 
L 116 -819 
Q 294 -616 411 -409 
Q 528 -203 569 0 
L 294 0 
L 425 684 
L 1034 684 
L 934 159 
z
" id="LiberationSans-Italic-2c" transform="scale(0.015625)"/>
     <path d="M 2063 0 
L 2450 1981 
Q 2463 2044 2477 2119 
Q 2491 2194 2502 2269 
Q 2513 2344 2520 2411 
Q 2528 2478 2528 2525 
Q 2528 2759 2409 2882 
Q 2291 3006 2022 3006 
Q 1844 3006 1683 2926 
Q 1522 2847 1394 2701 
Q 1266 2556 1172 2348 
Q 1078 2141 1034 1888 
L 666 0 
L 106 0 
L 625 2659 
Q 647 2766 667 2883 
Q 688 3000 705 3104 
Q 722 3209 733 3284 
Q 744 3359 747 3381 
L 1278 3381 
Q 1278 3366 1268 3297 
Q 1259 3228 1245 3139 
Q 1231 3050 1217 2958 
Q 1203 2866 1191 2803 
L 1200 2803 
Q 1294 2950 1394 3069 
Q 1494 3188 1612 3270 
Q 1731 3353 1876 3397 
Q 2022 3441 2206 3441 
Q 2584 3441 2806 3255 
Q 3028 3069 3072 2716 
Q 3172 2872 3278 3003 
Q 3384 3134 3514 3232 
Q 3644 3331 3801 3386 
Q 3959 3441 4159 3441 
Q 4581 3441 4807 3212 
Q 5034 2984 5034 2553 
Q 5034 2441 5014 2300 
Q 4994 2159 4969 2041 
L 4572 0 
L 4016 0 
L 4403 1981 
Q 4416 2044 4430 2119 
Q 4444 2194 4455 2269 
Q 4466 2344 4473 2411 
Q 4481 2478 4481 2525 
Q 4481 2759 4362 2882 
Q 4244 3006 3975 3006 
Q 3797 3006 3636 2928 
Q 3475 2850 3347 2706 
Q 3219 2563 3125 2356 
Q 3031 2150 2988 1897 
L 2619 0 
L 2063 0 
z
" id="LiberationSans-Italic-6d" transform="scale(0.015625)"/>
     <path d="M 2253 0 
L 1416 1569 
L 891 1181 
L 666 0 
L 106 0 
L 1006 4638 
L 1569 4638 
L 1009 1772 
L 1647 2366 
L 2775 3381 
L 3469 3381 
L 1813 1928 
L 2863 0 
L 2253 0 
z
" id="LiberationSans-Italic-6b" transform="scale(0.015625)"/>
     <path d="M 94 1759 
L 150 2081 
Q 241 2225 353 2342 
Q 466 2459 589 2556 
Q 713 2653 842 2734 
Q 972 2816 1097 2891 
Q 1256 2984 1400 3071 
Q 1544 3159 1655 3256 
Q 1766 3353 1830 3467 
Q 1894 3581 1894 3725 
Q 1894 3884 1787 3996 
Q 1681 4109 1478 4109 
Q 1378 4109 1286 4081 
Q 1194 4053 1117 3997 
Q 1041 3941 984 3858 
Q 928 3775 903 3669 
L 513 3716 
Q 553 3878 633 4012 
Q 713 4147 834 4242 
Q 956 4338 1123 4389 
Q 1291 4441 1500 4441 
Q 1697 4441 1850 4387 
Q 2003 4334 2106 4243 
Q 2209 4153 2264 4031 
Q 2319 3909 2319 3769 
Q 2319 3563 2231 3400 
Q 2144 3238 2003 3105 
Q 1863 2972 1688 2862 
Q 1513 2753 1334 2650 
Q 1225 2588 1119 2522 
Q 1013 2456 920 2390 
Q 828 2325 754 2254 
Q 681 2184 634 2113 
L 2034 2113 
L 1972 1759 
L 94 1759 
z
" id="LiberationSans-Italic-b2" transform="scale(0.015625)"/>
    </defs>
    <use xlink:href="#LiberationSans-Italic-44"/>
    <use x="72.216797" xlink:href="#LiberationSans-Italic-65"/>
    <use x="127.832031" xlink:href="#LiberationSans-Italic-20"/>
    <use x="155.615234" xlink:href="#LiberationSans-Italic-61"/>
    <use x="211.230469" xlink:href="#LiberationSans-Italic-67"/>
    <use x="266.845703" xlink:href="#LiberationSans-Italic-6f"/>
    <use x="322.460938" xlink:href="#LiberationSans-Italic-73"/>
    <use x="372.460938" xlink:href="#LiberationSans-Italic-74"/>
    <use x="400.244141" xlink:href="#LiberationSans-Italic-6f"/>
    <use x="455.859375" xlink:href="#LiberationSans-Italic-20"/>
    <use x="483.642578" xlink:href="#LiberationSans-Italic-61"/>
    <use x="539.257812" xlink:href="#LiberationSans-Italic-20"/>
    <use x="567.041016" xlink:href="#LiberationSans-Italic-6a"/>
    <use x="589.257812" xlink:href="#LiberationSans-Italic-75"/>
    <use x="644.873047" xlink:href="#LiberationSans-Italic-6c"/>
    <use x="667.089844" xlink:href="#LiberationSans-Italic-68"/>
    <use x="722.705078" xlink:href="#LiberationSans-Italic-6f"/>
    <use x="778.320312" xlink:href="#LiberationSans-Italic-2c"/>
    <use x="806.103516" xlink:href="#LiberationSans-Italic-20"/>
    <use x="833.886719" xlink:href="#LiberationSans-Italic-65"/>
    <use x="889.501953" xlink:href="#LiberationSans-Italic-6d"/>
    <use x="972.802734" xlink:href="#LiberationSans-Italic-20"/>
    <use x="1000.585938" xlink:href="#LiberationSans-Italic-6b"/>
    <use x="1050.585938" xlink:href="#LiberationSans-Italic-6d"/>
    <use x="1133.886719" xlink:href="#LiberationSans-Italic-b2"/>
   </g>
  </g>
  <g id="text_20">
   <!-- O desmatamento em 2020-2021 é o -->
   <g transform="translate(32.94375 54.081187)scale(0.12 -0.12)">
    <defs>
     <path d="M 4672 2222 
Q 4672 1706 4523 1284 
Q 4375 863 4094 563 
Q 3813 263 3406 100 
Q 3000 -63 2484 -63 
Q 1941 -63 1531 107 
Q 1122 278 850 583 
Q 578 888 440 1306 
Q 303 1725 303 2222 
Q 303 2738 447 3153 
Q 591 3569 869 3861 
Q 1147 4153 1555 4311 
Q 1963 4469 2491 4469 
Q 3016 4469 3423 4309 
Q 3831 4150 4107 3856 
Q 4384 3563 4528 3147 
Q 4672 2731 4672 2222 
z
M 4063 2222 
Q 4063 2619 3961 2944 
Q 3859 3269 3661 3500 
Q 3463 3731 3169 3856 
Q 2875 3981 2491 3981 
Q 2097 3981 1800 3856 
Q 1503 3731 1304 3500 
Q 1106 3269 1007 2944 
Q 909 2619 909 2222 
Q 909 1825 1011 1495 
Q 1113 1166 1311 927 
Q 1509 688 1804 555 
Q 2100 422 2484 422 
Q 2897 422 3195 556 
Q 3494 691 3686 930 
Q 3878 1169 3970 1500 
Q 4063 1831 4063 2222 
z
" id="LiberationSans-4f" transform="scale(0.015625)"/>
     <path d="M 2566 544 
Q 2409 219 2151 78 
Q 1894 -63 1513 -63 
Q 872 -63 570 368 
Q 269 800 269 1675 
Q 269 3444 1513 3444 
Q 1897 3444 2153 3303 
Q 2409 3163 2566 2856 
L 2572 2856 
Q 2572 2888 2570 2955 
Q 2569 3022 2567 3095 
Q 2566 3169 2566 3234 
Q 2566 3300 2566 3328 
L 2566 4638 
L 3128 4638 
L 3128 697 
Q 3128 575 3129 462 
Q 3131 350 3134 256 
Q 3138 163 3141 95 
Q 3144 28 3147 0 
L 2609 0 
Q 2603 31 2598 89 
Q 2594 147 2589 222 
Q 2584 297 2581 380 
Q 2578 463 2578 544 
L 2566 544 
z
M 859 1694 
Q 859 1344 903 1094 
Q 947 844 1044 683 
Q 1141 522 1291 447 
Q 1441 372 1656 372 
Q 1878 372 2048 444 
Q 2219 516 2333 677 
Q 2447 838 2506 1097 
Q 2566 1356 2566 1731 
Q 2566 2091 2506 2339 
Q 2447 2588 2331 2741 
Q 2216 2894 2048 2961 
Q 1881 3028 1663 3028 
Q 1456 3028 1306 2956 
Q 1156 2884 1056 2725 
Q 956 2566 907 2311 
Q 859 2056 859 1694 
z
" id="LiberationSans-64" transform="scale(0.015625)"/>
     <path d="M 863 1572 
Q 863 1306 917 1082 
Q 972 859 1086 698 
Q 1200 538 1378 448 
Q 1556 359 1806 359 
Q 2172 359 2392 506 
Q 2613 653 2691 878 
L 3184 738 
Q 3131 597 3036 455 
Q 2941 313 2781 198 
Q 2622 84 2383 10 
Q 2144 -63 1806 -63 
Q 1056 -63 664 384 
Q 272 831 272 1713 
Q 272 2188 390 2517 
Q 509 2847 715 3053 
Q 922 3259 1197 3351 
Q 1472 3444 1784 3444 
Q 2209 3444 2495 3306 
Q 2781 3169 2954 2926 
Q 3128 2684 3201 2356 
Q 3275 2028 3275 1647 
L 3275 1572 
L 863 1572 
z
M 2694 2003 
Q 2647 2538 2422 2783 
Q 2197 3028 1775 3028 
Q 1634 3028 1479 2983 
Q 1325 2938 1194 2822 
Q 1063 2706 972 2507 
Q 881 2309 869 2003 
L 2694 2003 
z
" id="LiberationSans-65" transform="scale(0.015625)"/>
     <path d="M 2969 934 
Q 2969 697 2876 511 
Q 2784 325 2609 198 
Q 2434 72 2179 4 
Q 1925 -63 1597 -63 
Q 1303 -63 1067 -17 
Q 831 28 653 128 
Q 475 228 354 392 
Q 234 556 178 794 
L 675 891 
Q 747 619 972 492 
Q 1197 366 1597 366 
Q 1778 366 1929 391 
Q 2081 416 2190 477 
Q 2300 538 2361 639 
Q 2422 741 2422 891 
Q 2422 1044 2350 1142 
Q 2278 1241 2150 1306 
Q 2022 1372 1839 1420 
Q 1656 1469 1438 1528 
Q 1234 1581 1034 1647 
Q 834 1713 673 1820 
Q 513 1928 413 2087 
Q 313 2247 313 2488 
Q 313 2950 642 3192 
Q 972 3434 1603 3434 
Q 2163 3434 2492 3237 
Q 2822 3041 2909 2606 
L 2403 2544 
Q 2375 2675 2300 2764 
Q 2225 2853 2119 2908 
Q 2013 2963 1880 2986 
Q 1747 3009 1603 3009 
Q 1222 3009 1040 2893 
Q 859 2778 859 2544 
Q 859 2406 926 2317 
Q 994 2228 1114 2167 
Q 1234 2106 1403 2061 
Q 1572 2016 1775 1966 
Q 1909 1931 2050 1892 
Q 2191 1853 2323 1798 
Q 2456 1744 2573 1670 
Q 2691 1597 2778 1494 
Q 2866 1391 2917 1253 
Q 2969 1116 2969 934 
z
" id="LiberationSans-73" transform="scale(0.015625)"/>
     <path d="M 1294 -63 
Q 784 -63 528 206 
Q 272 475 272 944 
Q 272 1278 398 1492 
Q 525 1706 729 1828 
Q 934 1950 1196 1997 
Q 1459 2044 1731 2050 
L 2491 2063 
L 2491 2247 
Q 2491 2456 2447 2603 
Q 2403 2750 2312 2840 
Q 2222 2931 2086 2973 
Q 1950 3016 1766 3016 
Q 1603 3016 1472 2992 
Q 1341 2969 1244 2908 
Q 1147 2847 1087 2742 
Q 1028 2638 1009 2478 
L 422 2531 
Q 453 2731 540 2898 
Q 628 3066 789 3187 
Q 950 3309 1192 3376 
Q 1434 3444 1778 3444 
Q 2416 3444 2737 3151 
Q 3059 2859 3059 2306 
L 3059 850 
Q 3059 600 3125 473 
Q 3191 347 3375 347 
Q 3422 347 3469 353 
Q 3516 359 3559 369 
L 3559 19 
Q 3453 -6 3348 -18 
Q 3244 -31 3125 -31 
Q 2966 -31 2852 11 
Q 2738 53 2666 139 
Q 2594 225 2556 351 
Q 2519 478 2509 647 
L 2491 647 
Q 2400 484 2292 353 
Q 2184 222 2040 130 
Q 1897 38 1714 -12 
Q 1531 -63 1294 -63 
z
M 1422 359 
Q 1691 359 1892 457 
Q 2094 556 2226 709 
Q 2359 863 2425 1044 
Q 2491 1225 2491 1391 
L 2491 1669 
L 1875 1656 
Q 1669 1653 1483 1626 
Q 1297 1600 1156 1522 
Q 1016 1444 933 1303 
Q 850 1163 850 934 
Q 850 659 998 509 
Q 1147 359 1422 359 
z
" id="LiberationSans-61" transform="scale(0.015625)"/>
     <path d="M 1731 25 
Q 1603 -9 1470 -29 
Q 1338 -50 1163 -50 
Q 488 -50 488 716 
L 488 2972 
L 97 2972 
L 97 3381 
L 509 3381 
L 675 4138 
L 1050 4138 
L 1050 3381 
L 1675 3381 
L 1675 2972 
L 1050 2972 
L 1050 838 
Q 1050 594 1129 495 
Q 1209 397 1406 397 
Q 1488 397 1564 409 
Q 1641 422 1731 441 
L 1731 25 
z
" id="LiberationSans-74" transform="scale(0.015625)"/>
     <path d="M 2578 0 
L 2578 2144 
Q 2578 2391 2542 2556 
Q 2506 2722 2425 2823 
Q 2344 2925 2211 2967 
Q 2078 3009 1881 3009 
Q 1681 3009 1520 2939 
Q 1359 2869 1245 2736 
Q 1131 2603 1068 2408 
Q 1006 2213 1006 1959 
L 1006 0 
L 444 0 
L 444 2659 
Q 444 2766 442 2883 
Q 441 3000 437 3104 
Q 434 3209 431 3284 
Q 428 3359 425 3381 
L 956 3381 
Q 959 3366 962 3297 
Q 966 3228 970 3139 
Q 975 3050 978 2958 
Q 981 2866 981 2803 
L 991 2803 
Q 1072 2950 1169 3069 
Q 1266 3188 1394 3270 
Q 1522 3353 1687 3398 
Q 1853 3444 2072 3444 
Q 2353 3444 2556 3375 
Q 2759 3306 2890 3162 
Q 3022 3019 3083 2792 
Q 3144 2566 3144 2253 
L 3144 0 
L 2578 0 
z
" id="LiberationSans-6e" transform="scale(0.015625)"/>
     <path d="M 3291 1694 
Q 3291 806 2900 371 
Q 2509 -63 1766 -63 
Q 1413 -63 1134 43 
Q 856 150 664 369 
Q 472 588 370 917 
Q 269 1247 269 1694 
Q 269 3444 1784 3444 
Q 2178 3444 2464 3334 
Q 2750 3225 2933 3006 
Q 3116 2788 3203 2459 
Q 3291 2131 3291 1694 
z
M 2700 1694 
Q 2700 2088 2639 2344 
Q 2578 2600 2461 2753 
Q 2344 2906 2175 2967 
Q 2006 3028 1794 3028 
Q 1578 3028 1404 2964 
Q 1231 2900 1109 2745 
Q 988 2591 923 2334 
Q 859 2078 859 1694 
Q 859 1300 928 1042 
Q 997 784 1117 631 
Q 1238 478 1402 415 
Q 1566 353 1759 353 
Q 1975 353 2150 414 
Q 2325 475 2447 628 
Q 2569 781 2634 1040 
Q 2700 1300 2700 1694 
z
" id="LiberationSans-6f" transform="scale(0.015625)"/>
     <path d="M 863 1572 
Q 863 1306 917 1082 
Q 972 859 1086 698 
Q 1200 538 1378 448 
Q 1556 359 1806 359 
Q 2172 359 2392 506 
Q 2613 653 2691 878 
L 3184 738 
Q 3131 597 3036 455 
Q 2941 313 2781 198 
Q 2622 84 2383 10 
Q 2144 -63 1806 -63 
Q 1056 -63 664 384 
Q 272 831 272 1713 
Q 272 2188 390 2517 
Q 509 2847 715 3053 
Q 922 3259 1197 3351 
Q 1472 3444 1784 3444 
Q 2209 3444 2495 3306 
Q 2781 3169 2954 2926 
Q 3128 2684 3201 2356 
Q 3275 2028 3275 1647 
L 3275 1572 
L 863 1572 
z
M 2694 2003 
Q 2647 2538 2422 2783 
Q 2197 3028 1775 3028 
Q 1634 3028 1479 2983 
Q 1325 2938 1194 2822 
Q 1063 2706 972 2507 
Q 881 2309 869 2003 
L 2694 2003 
z
M 1377 3753 
L 1377 3816 
L 2055 4713 
L 2702 4713 
L 2702 4622 
L 1671 3753 
L 1377 3753 
z
" id="LiberationSans-e9" transform="scale(0.015625)"/>
    </defs>
    <use xlink:href="#LiberationSans-4f"/>
    <use x="77.783203" xlink:href="#LiberationSans-20"/>
    <use x="105.566406" xlink:href="#LiberationSans-64"/>
    <use x="161.181641" xlink:href="#LiberationSans-65"/>
    <use x="216.796875" xlink:href="#LiberationSans-73"/>
    <use x="266.796875" xlink:href="#LiberationSans-6d"/>
    <use x="350.097656" xlink:href="#LiberationSans-61"/>
    <use x="405.712891" xlink:href="#LiberationSans-74"/>
    <use x="433.496094" xlink:href="#LiberationSans-61"/>
    <use x="489.111328" xlink:href="#LiberationSans-6d"/>
    <use x="572.412109" xlink:href="#LiberationSans-65"/>
    <use x="628.027344" xlink:href="#LiberationSans-6e"/>
    <use x="683.642578" xlink:href="#LiberationSans-74"/>
    <use x="711.425781" xlink:href="#LiberationSans-6f"/>
    <use x="767.041016" xlink:href="#LiberationSans-20"/>
    <use x="794.824219" xlink:href="#LiberationSans-65"/>
    <use x="850.439453" xlink:href="#LiberationSans-6d"/>
    <use x="933.740234" xlink:href="#LiberationSans-20"/>
    <use x="961.523438" xlink:href="#LiberationSans-32"/>
    <use x="1017.138672" xlink:href="#LiberationSans-30"/>
    <use x="1072.753906" xlink:href="#LiberationSans-32"/>
    <use x="1128.369141" xlink:href="#LiberationSans-30"/>
    <use x="1183.984375" xlink:href="#LiberationSans-2d"/>
    <use x="1217.285156" xlink:href="#LiberationSans-32"/>
    <use x="1272.900391" xlink:href="#LiberationSans-30"/>
    <use x="1328.515625" xlink:href="#LiberationSans-32"/>
    <use x="1384.130859" xlink:href="#LiberationSans-31"/>
    <use x="1439.746094" xlink:href="#LiberationSans-20"/>
    <use x="1467.529297" xlink:href="#LiberationSans-e9"/>
    <use x="1523.144531" xlink:href="#LiberationSans-20"/>
    <use x="1550.927734" xlink:href="#LiberationSans-6f"/>
   </g>
   <!-- 2° pior da história recente -->
   <g transform="translate(32.94375 67.175437)scale(0.12 -0.12)">
    <defs>
     <path d="M 2175 3578 
Q 2175 3394 2104 3231 
Q 2034 3069 1912 2948 
Q 1791 2828 1627 2758 
Q 1463 2688 1278 2688 
Q 1094 2688 931 2758 
Q 769 2828 647 2948 
Q 525 3069 453 3231 
Q 381 3394 381 3578 
Q 381 3766 453 3928 
Q 525 4091 647 4211 
Q 769 4331 931 4400 
Q 1094 4469 1278 4469 
Q 1463 4469 1627 4400 
Q 1791 4331 1912 4211 
Q 2034 4091 2104 3928 
Q 2175 3766 2175 3578 
z
M 1834 3578 
Q 1834 3694 1792 3797 
Q 1750 3900 1675 3976 
Q 1600 4053 1498 4097 
Q 1397 4141 1278 4141 
Q 1163 4141 1061 4097 
Q 959 4053 884 3976 
Q 809 3900 765 3797 
Q 722 3694 722 3578 
Q 722 3463 765 3361 
Q 809 3259 884 3182 
Q 959 3106 1061 3061 
Q 1163 3016 1278 3016 
Q 1397 3016 1498 3061 
Q 1600 3106 1675 3182 
Q 1750 3259 1792 3361 
Q 1834 3463 1834 3578 
z
" id="LiberationSans-b0" transform="scale(0.015625)"/>
     <path d="M 3291 1706 
Q 3291 1322 3228 997 
Q 3166 672 3020 437 
Q 2875 203 2636 70 
Q 2397 -63 2047 -63 
Q 1684 -63 1412 75 
Q 1141 213 997 525 
L 981 525 
Q 984 519 986 469 
Q 988 419 989 344 
Q 991 269 992 176 
Q 994 84 994 -6 
L 994 -1328 
L 431 -1328 
L 431 2691 
Q 431 2813 429 2925 
Q 428 3038 425 3130 
Q 422 3222 419 3287 
Q 416 3353 413 3381 
L 956 3381 
Q 959 3372 964 3315 
Q 969 3259 973 3179 
Q 978 3100 983 3009 
Q 988 2919 988 2838 
L 1000 2838 
Q 1078 3000 1178 3114 
Q 1278 3228 1406 3301 
Q 1534 3375 1692 3408 
Q 1850 3441 2047 3441 
Q 2397 3441 2636 3316 
Q 2875 3191 3020 2964 
Q 3166 2738 3228 2417 
Q 3291 2097 3291 1706 
z
M 2700 1694 
Q 2700 2006 2662 2250 
Q 2625 2494 2533 2662 
Q 2441 2831 2287 2918 
Q 2134 3006 1903 3006 
Q 1716 3006 1550 2953 
Q 1384 2900 1261 2750 
Q 1138 2600 1066 2336 
Q 994 2072 994 1650 
Q 994 1291 1053 1042 
Q 1113 794 1227 641 
Q 1341 488 1509 420 
Q 1678 353 1897 353 
Q 2131 353 2286 443 
Q 2441 534 2533 706 
Q 2625 878 2662 1126 
Q 2700 1375 2700 1694 
z
" id="LiberationSans-70" transform="scale(0.015625)"/>
     <path d="M 428 4100 
L 428 4638 
L 991 4638 
L 991 4100 
L 428 4100 
z
M 428 0 
L 428 3381 
L 991 3381 
L 991 0 
L 428 0 
z
" id="LiberationSans-69" transform="scale(0.015625)"/>
     <path d="M 444 0 
L 444 2594 
Q 444 2700 442 2811 
Q 441 2922 437 3025 
Q 434 3128 431 3218 
Q 428 3309 425 3381 
L 956 3381 
Q 959 3309 964 3217 
Q 969 3125 973 3028 
Q 978 2931 979 2842 
Q 981 2753 981 2691 
L 994 2691 
Q 1053 2884 1120 3026 
Q 1188 3169 1278 3261 
Q 1369 3353 1494 3398 
Q 1619 3444 1797 3444 
Q 1866 3444 1928 3433 
Q 1991 3422 2025 3413 
L 2025 2897 
Q 1969 2913 1894 2920 
Q 1819 2928 1725 2928 
Q 1531 2928 1395 2840 
Q 1259 2753 1173 2598 
Q 1088 2444 1047 2230 
Q 1006 2016 1006 1763 
L 1006 0 
L 444 0 
z
" id="LiberationSans-72" transform="scale(0.015625)"/>
     <path d="M 991 2803 
Q 1084 2975 1193 3095 
Q 1303 3216 1434 3294 
Q 1566 3372 1722 3408 
Q 1878 3444 2072 3444 
Q 2397 3444 2605 3356 
Q 2813 3269 2933 3111 
Q 3053 2953 3098 2734 
Q 3144 2516 3144 2253 
L 3144 0 
L 2578 0 
L 2578 2144 
Q 2578 2359 2551 2521 
Q 2525 2684 2450 2792 
Q 2375 2900 2237 2954 
Q 2100 3009 1881 3009 
Q 1681 3009 1520 2937 
Q 1359 2866 1245 2734 
Q 1131 2603 1068 2415 
Q 1006 2228 1006 1994 
L 1006 0 
L 444 0 
L 444 4638 
L 1006 4638 
L 1006 3431 
Q 1006 3328 1003 3225 
Q 1000 3122 995 3034 
Q 991 2947 987 2886 
Q 984 2825 981 2803 
L 991 2803 
z
" id="LiberationSans-68" transform="scale(0.015625)"/>
     <path d="M 3291 1694 
Q 3291 806 2900 371 
Q 2509 -63 1766 -63 
Q 1413 -63 1134 43 
Q 856 150 664 369 
Q 472 588 370 917 
Q 269 1247 269 1694 
Q 269 3444 1784 3444 
Q 2178 3444 2464 3334 
Q 2750 3225 2933 3006 
Q 3116 2788 3203 2459 
Q 3291 2131 3291 1694 
z
M 2700 1694 
Q 2700 2088 2639 2344 
Q 2578 2600 2461 2753 
Q 2344 2906 2175 2967 
Q 2006 3028 1794 3028 
Q 1578 3028 1404 2964 
Q 1231 2900 1109 2745 
Q 988 2591 923 2334 
Q 859 2078 859 1694 
Q 859 1300 928 1042 
Q 997 784 1117 631 
Q 1238 478 1402 415 
Q 1566 353 1759 353 
Q 1975 353 2150 414 
Q 2325 475 2447 628 
Q 2569 781 2634 1040 
Q 2700 1300 2700 1694 
z
M 1345 3753 
L 1345 3816 
L 2023 4713 
L 2670 4713 
L 2670 4622 
L 1639 3753 
L 1345 3753 
z
" id="LiberationSans-f3" transform="scale(0.015625)"/>
     <path d="M 859 1706 
Q 859 1416 901 1172 
Q 944 928 1044 751 
Q 1144 575 1308 478 
Q 1472 381 1713 381 
Q 2013 381 2214 543 
Q 2416 706 2463 1044 
L 3031 1006 
Q 3003 797 2909 603 
Q 2816 409 2655 262 
Q 2494 116 2262 26 
Q 2031 -63 1728 -63 
Q 1331 -63 1053 71 
Q 775 206 601 442 
Q 428 678 350 998 
Q 272 1319 272 1694 
Q 272 2034 328 2295 
Q 384 2556 486 2751 
Q 588 2947 725 3080 
Q 863 3213 1023 3292 
Q 1184 3372 1362 3408 
Q 1541 3444 1722 3444 
Q 2006 3444 2228 3366 
Q 2450 3288 2611 3152 
Q 2772 3016 2872 2831 
Q 2972 2647 3013 2434 
L 2434 2391 
Q 2391 2672 2212 2837 
Q 2034 3003 1706 3003 
Q 1466 3003 1305 2923 
Q 1144 2844 1044 2683 
Q 944 2522 901 2278 
Q 859 2034 859 1706 
z
" id="LiberationSans-63" transform="scale(0.015625)"/>
    </defs>
    <use xlink:href="#LiberationSans-32"/>
    <use x="55.615234" xlink:href="#LiberationSans-b0"/>
    <use x="95.605469" xlink:href="#LiberationSans-20"/>
    <use x="123.388672" xlink:href="#LiberationSans-70"/>
    <use x="179.003906" xlink:href="#LiberationSans-69"/>
    <use x="201.220703" xlink:href="#LiberationSans-6f"/>
    <use x="256.835938" xlink:href="#LiberationSans-72"/>
    <use x="290.136719" xlink:href="#LiberationSans-20"/>
    <use x="317.919922" xlink:href="#LiberationSans-64"/>
    <use x="373.535156" xlink:href="#LiberationSans-61"/>
    <use x="429.150391" xlink:href="#LiberationSans-20"/>
    <use x="456.933594" xlink:href="#LiberationSans-68"/>
    <use x="512.548828" xlink:href="#LiberationSans-69"/>
    <use x="534.765625" xlink:href="#LiberationSans-73"/>
    <use x="584.765625" xlink:href="#LiberationSans-74"/>
    <use x="612.548828" xlink:href="#LiberationSans-f3"/>
    <use x="668.164062" xlink:href="#LiberationSans-72"/>
    <use x="701.464844" xlink:href="#LiberationSans-69"/>
    <use x="723.681641" xlink:href="#LiberationSans-61"/>
    <use x="779.296875" xlink:href="#LiberationSans-20"/>
    <use x="807.080078" xlink:href="#LiberationSans-72"/>
    <use x="840.380859" xlink:href="#LiberationSans-65"/>
    <use x="895.996094" xlink:href="#LiberationSans-63"/>
    <use x="945.996094" xlink:href="#LiberationSans-65"/>
    <use x="1001.611328" xlink:href="#LiberationSans-6e"/>
    <use x="1057.226562" xlink:href="#LiberationSans-74"/>
    <use x="1085.009766" xlink:href="#LiberationSans-65"/>
   </g>
   <!--  -->
   <g transform="translate(32.94375 80.100937)scale(0.12 -0.12)"/>
  </g>
  <g id="text_21">
   <!-- Fonte: Inpe, Deter | Autor: Fabrício Reis (@fabricioreisbr) -->
   <g transform="translate(32.94375 294.300937)scale(0.11 -0.11)">
    <defs>
     <path d="M 1350 3691 
L 1350 2328 
L 3603 2328 
L 3603 1616 
L 1350 1616 
L 1350 0 
L 428 0 
L 428 4403 
L 3675 4403 
L 3675 3691 
L 1350 3691 
z
" id="LiberationSans-Bold-46" transform="scale(0.015625)"/>
     <path d="M 428 0 
L 428 4403 
L 1350 4403 
L 1350 0 
L 428 0 
z
" id="LiberationSans-Bold-49" transform="scale(0.015625)"/>
     <path d="M 3647 1706 
Q 3647 859 3308 398 
Q 2969 -63 2350 -63 
Q 1994 -63 1730 92 
Q 1466 247 1325 538 
L 1306 538 
Q 1325 444 1325 -31 
L 1325 -1328 
L 447 -1328 
L 447 2603 
Q 447 3081 422 3381 
L 1275 3381 
Q 1291 3325 1302 3159 
Q 1313 2994 1313 2831 
L 1325 2831 
Q 1622 3453 2406 3453 
Q 2997 3453 3322 2998 
Q 3647 2544 3647 1706 
z
M 2731 1706 
Q 2731 2844 2034 2844 
Q 1684 2844 1498 2537 
Q 1313 2231 1313 1681 
Q 1313 1134 1498 836 
Q 1684 538 2028 538 
Q 2731 538 2731 1706 
z
" id="LiberationSans-Bold-70" transform="scale(0.015625)"/>
     <path d="M 1350 206 
Q 1350 -169 1270 -456 
Q 1191 -744 1013 -991 
L 434 -991 
Q 619 -769 734 -503 
Q 850 -238 850 0 
L 447 0 
L 447 953 
L 1350 953 
L 1350 206 
z
" id="LiberationSans-Bold-2c" transform="scale(0.015625)"/>
     <path d="M 447 0 
L 447 2588 
Q 447 2866 439 3052 
Q 431 3238 422 3381 
L 1259 3381 
Q 1269 3325 1284 3039 
Q 1300 2753 1300 2659 
L 1313 2659 
Q 1441 3016 1541 3161 
Q 1641 3306 1778 3376 
Q 1916 3447 2122 3447 
Q 2291 3447 2394 3400 
L 2394 2666 
Q 2181 2713 2019 2713 
Q 1691 2713 1508 2447 
Q 1325 2181 1325 1659 
L 1325 0 
L 447 0 
z
" id="LiberationSans-Bold-72" transform="scale(0.015625)"/>
     <path d="M 488 -1422 
L 488 4638 
L 1306 4638 
L 1306 -1422 
L 488 -1422 
z
" id="LiberationSans-Bold-7c" transform="scale(0.015625)"/>
     <path d="M 1275 3381 
L 1275 1484 
Q 1275 594 1875 594 
Q 2194 594 2389 867 
Q 2584 1141 2584 1569 
L 2584 3381 
L 3463 3381 
L 3463 756 
Q 3463 325 3488 0 
L 2650 0 
Q 2613 450 2613 672 
L 2597 672 
Q 2422 288 2151 112 
Q 1881 -63 1509 -63 
Q 972 -63 684 267 
Q 397 597 397 1234 
L 397 3381 
L 1275 3381 
z
" id="LiberationSans-Bold-75" transform="scale(0.015625)"/>
     <path d="M 3647 1703 
Q 3647 866 3311 401 
Q 2975 -63 2350 -63 
Q 1991 -63 1728 93 
Q 1466 250 1325 544 
L 1319 544 
Q 1319 434 1305 243 
Q 1291 53 1275 0 
L 422 0 
Q 447 291 447 772 
L 447 4638 
L 1325 4638 
L 1325 3344 
L 1313 2794 
L 1325 2794 
Q 1622 3444 2406 3444 
Q 3006 3444 3326 2989 
Q 3647 2534 3647 1703 
z
M 2731 1703 
Q 2731 2278 2562 2556 
Q 2394 2834 2041 2834 
Q 1684 2834 1498 2536 
Q 1313 2238 1313 1675 
Q 1313 1138 1495 838 
Q 1678 538 2034 538 
Q 2731 538 2731 1703 
z
" id="LiberationSans-Bold-62" transform="scale(0.015625)"/>
     <path d="M 453 0 
L 453 3381 
L 1331 3381 
L 1331 0 
L 453 0 
z
M 360 3697 
L 360 3794 
L 1147 4694 
L 1954 4694 
L 1954 4559 
L 891 3697 
L 360 3697 
z
" id="LiberationSans-Bold-ed" transform="scale(0.015625)"/>
     <path d="M 1856 -63 
Q 1088 -63 669 395 
Q 250 853 250 1672 
Q 250 2509 672 2976 
Q 1094 3444 1869 3444 
Q 2466 3444 2856 3144 
Q 3247 2844 3347 2316 
L 2463 2272 
Q 2425 2531 2275 2686 
Q 2125 2841 1850 2841 
Q 1172 2841 1172 1706 
Q 1172 538 1863 538 
Q 2113 538 2281 695 
Q 2450 853 2491 1166 
L 3372 1125 
Q 3325 778 3123 506 
Q 2922 234 2594 85 
Q 2266 -63 1856 -63 
z
" id="LiberationSans-Bold-63" transform="scale(0.015625)"/>
     <path d="M 3453 0 
L 2431 1672 
L 1350 1672 
L 1350 0 
L 428 0 
L 428 4403 
L 2628 4403 
Q 3416 4403 3844 4064 
Q 4272 3725 4272 3091 
Q 4272 2628 4009 2292 
Q 3747 1956 3300 1850 
L 4491 0 
L 3453 0 
z
M 3344 3053 
Q 3344 3688 2531 3688 
L 1350 3688 
L 1350 2388 
L 2556 2388 
Q 2944 2388 3144 2563 
Q 3344 2738 3344 3053 
z
" id="LiberationSans-Bold-52" transform="scale(0.015625)"/>
     <path d="M 1247 -1328 
Q 756 -622 537 81 
Q 319 784 319 1659 
Q 319 2531 537 3232 
Q 756 3934 1247 4638 
L 2125 4638 
Q 1631 3925 1407 3219 
Q 1184 2513 1184 1656 
Q 1184 803 1406 101 
Q 1628 -600 2125 -1328 
L 1247 -1328 
z
" id="LiberationSans-Bold-28" transform="scale(0.015625)"/>
     <path d="M 5869 2266 
Q 5869 1697 5670 1228 
Q 5472 759 5122 495 
Q 4772 231 4366 231 
Q 4078 231 3923 373 
Q 3769 516 3769 769 
Q 3769 884 3788 978 
L 3769 978 
Q 3613 650 3305 440 
Q 2997 231 2675 231 
Q 2184 231 1914 548 
Q 1644 866 1644 1434 
Q 1644 1944 1845 2391 
Q 2047 2838 2405 3092 
Q 2763 3347 3206 3347 
Q 3816 3347 4031 2803 
L 4050 2803 
L 4172 3278 
L 4659 3278 
L 4294 1697 
Q 4178 1159 4178 947 
Q 4178 791 4251 725 
Q 4325 659 4422 659 
Q 4672 659 4900 876 
Q 5128 1094 5261 1458 
Q 5394 1822 5394 2259 
Q 5394 2806 5155 3226 
Q 4916 3647 4466 3875 
Q 4016 4103 3419 4103 
Q 2669 4103 2097 3775 
Q 1525 3447 1198 2828 
Q 872 2209 872 1441 
Q 872 831 1120 370 
Q 1369 -91 1819 -327 
Q 2269 -563 2875 -563 
Q 3794 -563 4716 -78 
L 4909 -459 
Q 4384 -756 3882 -884 
Q 3381 -1013 2853 -1013 
Q 2116 -1013 1555 -714 
Q 994 -416 680 148 
Q 366 713 366 1441 
Q 366 2325 761 3040 
Q 1156 3756 1853 4150 
Q 2550 4544 3413 4544 
Q 4172 4544 4728 4261 
Q 5284 3978 5576 3462 
Q 5869 2947 5869 2266 
z
M 3847 2253 
Q 3847 2550 3661 2737 
Q 3475 2925 3181 2925 
Q 2888 2925 2655 2729 
Q 2422 2534 2292 2176 
Q 2163 1819 2163 1441 
Q 2163 1084 2314 878 
Q 2466 672 2778 672 
Q 2984 672 3179 803 
Q 3375 934 3528 1182 
Q 3681 1431 3764 1748 
Q 3847 2066 3847 2253 
z
" id="LiberationSans-Bold-40" transform="scale(0.015625)"/>
     <path d="M 1478 2788 
L 1478 0 
L 603 0 
L 603 2788 
L 109 2788 
L 109 3381 
L 603 3381 
L 603 3734 
Q 603 4194 847 4416 
Q 1091 4638 1588 4638 
Q 1834 4638 2144 4588 
L 2144 4022 
Q 2016 4050 1888 4050 
Q 1663 4050 1570 3961 
Q 1478 3872 1478 3647 
L 1478 3381 
L 2144 3381 
L 2144 2788 
L 1478 2788 
z
" id="LiberationSans-Bold-66" transform="scale(0.015625)"/>
     <path d="M 6 -1328 
Q 506 -597 726 101 
Q 947 800 947 1656 
Q 947 2516 722 3223 
Q 497 3931 6 4638 
L 884 4638 
Q 1378 3928 1595 3225 
Q 1813 2522 1813 1659 
Q 1813 791 1595 87 
Q 1378 -616 884 -1328 
L 6 -1328 
z
" id="LiberationSans-Bold-29" transform="scale(0.015625)"/>
    </defs>
    <use xlink:href="#LiberationSans-Bold-46"/>
    <use x="61.083984" xlink:href="#LiberationSans-Bold-6f"/>
    <use x="122.167969" xlink:href="#LiberationSans-Bold-6e"/>
    <use x="183.251953" xlink:href="#LiberationSans-Bold-74"/>
    <use x="216.552734" xlink:href="#LiberationSans-Bold-65"/>
    <use x="272.167969" xlink:href="#LiberationSans-Bold-3a"/>
    <use x="305.46875" xlink:href="#LiberationSans-Bold-20"/>
    <use x="333.251953" xlink:href="#LiberationSans-Bold-49"/>
    <use x="361.035156" xlink:href="#LiberationSans-Bold-6e"/>
    <use x="422.119141" xlink:href="#LiberationSans-Bold-70"/>
    <use x="483.203125" xlink:href="#LiberationSans-Bold-65"/>
    <use x="538.818359" xlink:href="#LiberationSans-Bold-2c"/>
    <use x="566.601562" xlink:href="#LiberationSans-Bold-20"/>
    <use x="594.384766" xlink:href="#LiberationSans-Bold-44"/>
    <use x="666.601562" xlink:href="#LiberationSans-Bold-65"/>
    <use x="722.216797" xlink:href="#LiberationSans-Bold-74"/>
    <use x="755.517578" xlink:href="#LiberationSans-Bold-65"/>
    <use x="811.132812" xlink:href="#LiberationSans-Bold-72"/>
    <use x="850.048828" xlink:href="#LiberationSans-Bold-20"/>
    <use x="877.832031" xlink:href="#LiberationSans-Bold-7c"/>
    <use x="905.810547" xlink:href="#LiberationSans-Bold-20"/>
    <use x="929.84375" xlink:href="#LiberationSans-Bold-41"/>
    <use x="1002.060547" xlink:href="#LiberationSans-Bold-75"/>
    <use x="1063.144531" xlink:href="#LiberationSans-Bold-74"/>
    <use x="1096.445312" xlink:href="#LiberationSans-Bold-6f"/>
    <use x="1157.529297" xlink:href="#LiberationSans-Bold-72"/>
    <use x="1196.445312" xlink:href="#LiberationSans-Bold-3a"/>
    <use x="1229.746094" xlink:href="#LiberationSans-Bold-20"/>
    <use x="1257.529297" xlink:href="#LiberationSans-Bold-46"/>
    <use x="1318.613281" xlink:href="#LiberationSans-Bold-61"/>
    <use x="1374.228516" xlink:href="#LiberationSans-Bold-62"/>
    <use x="1435.3125" xlink:href="#LiberationSans-Bold-72"/>
    <use x="1474.228516" xlink:href="#LiberationSans-Bold-ed"/>
    <use x="1502.011719" xlink:href="#LiberationSans-Bold-63"/>
    <use x="1557.626953" xlink:href="#LiberationSans-Bold-69"/>
    <use x="1585.410156" xlink:href="#LiberationSans-Bold-6f"/>
    <use x="1646.494141" xlink:href="#LiberationSans-Bold-20"/>
    <use x="1674.277344" xlink:href="#LiberationSans-Bold-52"/>
    <use x="1746.494141" xlink:href="#LiberationSans-Bold-65"/>
    <use x="1802.109375" xlink:href="#LiberationSans-Bold-69"/>
    <use x="1829.892578" xlink:href="#LiberationSans-Bold-73"/>
    <use x="1885.507812" xlink:href="#LiberationSans-Bold-20"/>
    <use x="1913.291016" xlink:href="#LiberationSans-Bold-28"/>
    <use x="1946.591797" xlink:href="#LiberationSans-Bold-40"/>
    <use x="2044.101562" xlink:href="#LiberationSans-Bold-66"/>
    <use x="2077.402344" xlink:href="#LiberationSans-Bold-61"/>
    <use x="2133.017578" xlink:href="#LiberationSans-Bold-62"/>
    <use x="2194.101562" xlink:href="#LiberationSans-Bold-72"/>
    <use x="2233.017578" xlink:href="#LiberationSans-Bold-69"/>
    <use x="2260.800781" xlink:href="#LiberationSans-Bold-63"/>
    <use x="2316.416016" xlink:href="#LiberationSans-Bold-69"/>
    <use x="2344.199219" xlink:href="#LiberationSans-Bold-6f"/>
    <use x="2405.283203" xlink:href="#LiberationSans-Bold-72"/>
    <use x="2444.199219" xlink:href="#LiberationSans-Bold-65"/>
    <use x="2499.814453" xlink:href="#LiberationSans-Bold-69"/>
    <use x="2527.597656" xlink:href="#LiberationSans-Bold-73"/>
    <use x="2583.212891" xlink:href="#LiberationSans-Bold-62"/>
    <use x="2644.296875" xlink:href="#LiberationSans-Bold-72"/>
    <use x="2683.212891" xlink:href="#LiberationSans-Bold-29"/>
   </g>
  </g>
 </g>
 <defs>
  <clipPath id="pb3dfb16217">
   <rect height="190.26" width="446.4" x="32.94375" y="72.540937"/>
  </clipPath>
 </defs>
</svg>
